<svg width="331" height="403" viewBox="0 0 331 403" fill="none" xmlns="http://www.w3.org/2000/svg">
<path d="M46.3867 114.571C74.7079 99.9307 116.284 99.4117 168.648 121.519L169.653 121.942L170.648 121.494C216.288 100.897 255.716 101.376 283.579 115.671C311.378 129.932 328.143 158.179 328.143 194.255C328.143 230.79 317.87 282.315 292.828 324.621C267.833 366.85 228.291 399.676 169.62 399.676C110.917 399.676 69.2106 366.812 42.0664 324.543C14.8826 282.213 2.5 230.706 2.5 194.255C2.50006 158.1 18.1546 129.166 46.3867 114.571Z" fill="#FF4431" stroke="black" stroke-width="5"/>
<path d="M169.663 141.69C169.445 142.285 169.476 142.956 169.733 143.55C169.991 144.145 170.454 144.614 171.037 144.86C171.619 145.107 172.278 145.113 172.885 144.884C173.491 144.655 173.994 144.209 174.268 143.639C174.268 143.639 174.268 143.639 174.268 143.639C175.25 141.585 176.23 139.487 177.199 137.392C184.814 120.441 192.688 104.044 197.642 85.0042C197.644 84.9935 197.646 84.9828 197.649 84.972C201.935 61.5521 203.426 39.056 205.436 16.1384C205.62 13.8574 205.804 11.5076 205.976 9.24697C206.155 6.86405 205.371 4.55251 203.728 2.81904C202.089 1.08567 199.726 0.0723724 197.225 0.00386429C194.725 -0.0646439 192.31 0.81777 190.579 2.45879C188.843 4.09971 187.933 6.36482 187.982 8.75401C187.982 8.75401 187.982 8.75401 187.982 8.75401C188.029 10.9407 188.063 13.3001 188.096 15.5593C188.28 38.1535 188.813 61.4073 186.929 83.1077C186.928 83.1165 186.927 83.1253 186.926 83.1341C184.231 100.116 177.872 118.03 171.965 135.264C171.205 137.421 170.425 139.601 169.663 141.69Z" fill="black"/>
</svg>
