<svg width="125" height="124" viewBox="0 0 125 124" fill="none" xmlns="http://www.w3.org/2000/svg">
<path d="M62.5 2.5C95.6584 2.5 122.5 29.1328 122.5 61.9385C122.5 94.7441 95.6584 121.377 62.5 121.377C29.3416 121.377 2.50004 94.7441 2.5 61.9385C2.5 29.1328 29.3416 2.5 62.5 2.5Z" fill="white" stroke="black" stroke-width="5"/>
<path d="M62.502 30.4727C79.1173 30.4727 92.5479 43.8153 92.5479 60.2266C92.5477 76.6377 79.1172 89.9795 62.502 89.9795C45.8868 89.9794 32.4562 76.6377 32.4561 60.2266C32.4561 43.8154 45.8867 30.4728 62.502 30.4727Z" fill="#05C1F1" stroke="black" stroke-width="5"/>
<path d="M62.2227 43.031C71.998 43.031 79.8838 50.8787 79.8838 60.5115C79.8836 70.1441 71.9979 77.991 62.2227 77.991C52.4475 77.9909 44.5617 70.1441 44.5615 60.5115C44.5615 50.8787 52.4473 43.0311 62.2227 43.031Z" fill="black" stroke="black" stroke-width="5"/>
<path d="M73.0811 44.5C77.2889 44.5002 80.6611 47.8749 80.6611 51.9902C80.661 56.1055 77.2888 59.4803 73.0811 59.4805C68.8731 59.4805 65.5001 56.1056 65.5 51.9902C65.5 47.8748 68.8731 44.5 73.0811 44.5Z" fill="white" stroke="black" stroke-width="5"/>
</svg>
