<svg width="694" height="457" viewBox="0 0 694 457" fill="none" xmlns="http://www.w3.org/2000/svg">
<path d="M374.002 266.999H317.002V290.499H374.002V266.999Z" fill="#05C1F1" stroke="black" stroke-width="5"/>
<path d="M192.788 84.3818L193.35 86.1094H275.383L210.486 133.26L208.379 134.791L209.995 136.834L217.325 146.096L168.655 132.869L168.079 132.713L167.495 132.834L121.963 142.218L126.043 136.783L127.567 134.752L125.514 133.26L60.6172 86.1094H142.649L143.211 84.3818L167.999 8.08887L192.788 84.3818Z" fill="#05C1F1" stroke="black" stroke-width="5"/>
<path d="M550.866 84.3818L551.428 86.1094H633.461L568.564 133.26L566.457 134.791L568.073 136.834L575.403 146.096L526.733 132.869L526.157 132.713L525.573 132.834L480.041 142.218L484.121 136.783L485.646 134.752L483.592 133.26L418.695 86.1094H500.728L501.289 84.3818L526.077 8.08887L550.866 84.3818Z" fill="#05C1F1" stroke="black" stroke-width="5"/>
<circle cx="168.5" cy="289.5" r="142.5" fill="#05C1F1" fill-opacity="0.2"/>
<path d="M235 160.225C181.667 231.725 68.4 385.125 66 394.725L130 437.225L299 209.725L235 160.225Z" fill="white" fill-opacity="0.4"/>
<path d="M179 139.725C125.667 211.225 34.9 332.625 32.5 342.225L45 364.225L201.5 148.725L179 139.725Z" fill="white" fill-opacity="0.4"/>
<mask id="path-7-inside-1_22_792" fill="white">
<path d="M167.941 121C260.693 121 335.884 196.19 335.884 288.941C335.884 381.693 260.693 456.884 167.941 456.884C75.1899 456.884 0 381.693 0 288.941C0.000148438 196.19 75.19 121 167.941 121ZM168.459 147.871C90.2622 147.871 26.8711 211.262 26.8711 289.459C26.8712 367.656 90.2623 431.047 168.459 431.047C246.656 431.047 310.047 367.656 310.047 289.459C310.047 211.262 246.656 147.871 168.459 147.871Z"/>
</mask>
<path d="M167.941 121C260.693 121 335.884 196.19 335.884 288.941C335.884 381.693 260.693 456.884 167.941 456.884C75.1899 456.884 0 381.693 0 288.941C0.000148438 196.19 75.19 121 167.941 121ZM168.459 147.871C90.2622 147.871 26.8711 211.262 26.8711 289.459C26.8712 367.656 90.2623 431.047 168.459 431.047C246.656 431.047 310.047 367.656 310.047 289.459C310.047 211.262 246.656 147.871 168.459 147.871Z" fill="#05C1F1"/>
<path d="M167.941 121V116H167.941L167.941 121ZM335.884 288.941H340.884V288.941L335.884 288.941ZM167.941 456.884L167.941 461.884H167.941V456.884ZM0 288.941L-5 288.941V288.941H0ZM168.459 147.871V142.871V142.871V147.871ZM26.8711 289.459H21.8711V289.459H26.8711ZM168.459 431.047V436.047V436.047V431.047ZM310.047 289.459H315.047V289.459H310.047ZM167.941 121V126C257.932 126 330.884 198.951 330.884 288.941L335.884 288.941L340.884 288.941C340.884 193.428 263.454 116 167.941 116V121ZM335.884 288.941H330.884C330.884 378.932 257.932 451.884 167.941 451.884V456.884V461.884C263.454 461.884 340.884 384.454 340.884 288.941H335.884ZM167.941 456.884L167.941 451.884C77.9514 451.884 5 378.932 5 288.941H0H-5C-5 384.454 72.4285 461.884 167.941 461.884L167.941 456.884ZM0 288.941L5 288.941C5.00014 198.951 77.9514 126 167.941 126L167.941 121L167.941 116C72.4286 116 -4.99985 193.429 -5 288.941L0 288.941ZM168.459 147.871V142.871C87.5008 142.871 21.8711 208.501 21.8711 289.459H26.8711H31.8711C31.8711 214.024 93.0237 152.871 168.459 152.871V147.871ZM26.8711 289.459H21.8711C21.8712 370.417 87.5008 436.047 168.459 436.047V431.047V426.047C93.0237 426.047 31.8712 364.894 31.8711 289.459H26.8711ZM168.459 431.047V436.047C249.417 436.047 315.047 370.417 315.047 289.459H310.047H305.047C305.047 364.894 243.894 426.047 168.459 426.047V431.047ZM310.047 289.459H315.047C315.047 208.501 249.417 142.871 168.459 142.871V147.871V152.871C243.894 152.871 305.047 214.024 305.047 289.459H310.047Z" fill="black" mask="url(#path-7-inside-1_22_792)"/>
<circle cx="526.5" cy="289.5" r="142.5" fill="#05C1F1" fill-opacity="0.2"/>
<path d="M595.5 160.225C542.167 231.725 428.9 385.125 426.5 394.725L490.5 437.225L659.5 209.725L595.5 160.225Z" fill="white" fill-opacity="0.4"/>
<path d="M539.5 139.725C486.167 211.225 395.4 332.625 393 342.225L405.5 364.225L562 148.725L539.5 139.725Z" fill="white" fill-opacity="0.4"/>
<mask id="path-12-inside-2_22_792" fill="white">
<path d="M525.941 121C618.693 121 693.884 196.19 693.884 288.941C693.884 381.693 618.693 456.884 525.941 456.884C433.19 456.884 358 381.693 358 288.941C358 196.19 433.19 121 525.941 121ZM526.459 147.871C448.262 147.871 384.871 211.262 384.871 289.459C384.871 367.656 448.262 431.047 526.459 431.047C604.656 431.047 668.047 367.656 668.047 289.459C668.047 211.262 604.656 147.871 526.459 147.871Z"/>
</mask>
<path d="M525.941 121C618.693 121 693.884 196.19 693.884 288.941C693.884 381.693 618.693 456.884 525.941 456.884C433.19 456.884 358 381.693 358 288.941C358 196.19 433.19 121 525.941 121ZM526.459 147.871C448.262 147.871 384.871 211.262 384.871 289.459C384.871 367.656 448.262 431.047 526.459 431.047C604.656 431.047 668.047 367.656 668.047 289.459C668.047 211.262 604.656 147.871 526.459 147.871Z" fill="#05C1F1"/>
<path d="M525.941 121V116H525.941L525.941 121ZM693.884 288.941H698.884V288.941L693.884 288.941ZM525.941 456.884L525.941 461.884H525.941V456.884ZM358 288.941L353 288.941V288.941H358ZM526.459 147.871V142.871V142.871V147.871ZM384.871 289.459H379.871V289.459H384.871ZM526.459 431.047V436.047V436.047V431.047ZM668.047 289.459H673.047V289.459H668.047ZM525.941 121V126C615.932 126 688.884 198.951 688.884 288.941L693.884 288.941L698.884 288.941C698.884 193.428 621.454 116 525.941 116V121ZM693.884 288.941H688.884C688.884 378.932 615.932 451.884 525.941 451.884V456.884V461.884C621.454 461.884 698.884 384.454 698.884 288.941H693.884ZM525.941 456.884L525.941 451.884C435.951 451.884 363 378.932 363 288.941H358H353C353 384.454 430.428 461.884 525.941 461.884L525.941 456.884ZM358 288.941L363 288.941C363 198.951 435.951 126 525.941 126L525.941 121L525.941 116C430.429 116 353 193.429 353 288.941L358 288.941ZM526.459 147.871V142.871C445.501 142.871 379.871 208.501 379.871 289.459H384.871H389.871C389.871 214.024 451.024 152.871 526.459 152.871V147.871ZM384.871 289.459H379.871C379.871 370.417 445.501 436.047 526.459 436.047V431.047V426.047C451.024 426.047 389.871 364.894 389.871 289.459H384.871ZM526.459 431.047V436.047C607.417 436.047 673.047 370.417 673.047 289.459H668.047H663.047C663.047 364.894 601.894 426.047 526.459 426.047V431.047ZM668.047 289.459H673.047C673.047 208.501 607.417 142.871 526.459 142.871V147.871V152.871C601.894 152.871 663.047 214.024 663.047 289.459H668.047Z" fill="black" mask="url(#path-12-inside-2_22_792)"/>
</svg>
