<svg width="1680" height="1281" viewBox="0 0 1680 1281" fill="none" xmlns="http://www.w3.org/2000/svg">
<mask id="path-1-inside-1_63_123" fill="white">
<path d="M1327.13 128H1681V1281H0V128H1187.87L1257.5 0L1327.13 128Z"/>
</mask>
<path d="M1327.13 128H1681V1281H0V128H1187.87L1257.5 0L1327.13 128Z" fill="#05C1F1"/>
<path d="M1327.13 128L1318.34 132.779L1321.18 138H1327.13V128ZM1681 128H1691V118H1681V128ZM1681 1281V1291H1691V1281H1681ZM0 1281H-10V1291H0V1281ZM0 128V118H-10V128H0ZM1187.87 128V138H1193.82L1196.66 132.779L1187.87 128ZM1257.5 0L1266.28 -4.77851L1257.5 -20.927L1248.72 -4.77851L1257.5 0ZM1327.13 128V138H1681V128V118H1327.13V128ZM1681 128H1671V1281H1681H1691V128H1681ZM1681 1281V1271H0V1281V1291H1681V1281ZM0 1281H10V128H0H-10V1281H0ZM0 128V138H1187.87V128V118H0V128ZM1187.87 128L1196.66 132.779L1266.28 4.77851L1257.5 0L1248.72 -4.77851L1179.09 123.221L1187.87 128ZM1257.5 0L1248.72 4.77851L1318.34 132.779L1327.13 128L1335.91 123.221L1266.28 -4.77851L1257.5 0Z" fill="black" mask="url(#path-1-inside-1_63_123)"/>
</svg>
