<svg width="781" height="764" viewBox="0 0 781 764" fill="none" xmlns="http://www.w3.org/2000/svg">
<path d="M394.601 297.282C479.081 301.507 554.984 315.07 609.39 333.527C636.61 342.762 658.31 353.175 673.002 364.159C687.78 375.207 694.931 386.406 694.392 397.17C693.854 407.934 685.622 418.364 669.815 427.883C654.1 437.346 631.469 445.541 603.464 452.014C547.488 464.95 470.61 470.872 386.13 466.646C301.649 462.421 225.745 448.858 171.339 430.401C144.12 421.167 122.421 410.754 107.728 399.77C92.9496 388.722 85.7986 377.522 86.337 366.758C86.8754 355.994 95.1081 345.565 110.915 336.046C126.63 326.583 149.26 318.387 177.265 311.914C233.242 298.978 310.12 293.057 394.601 297.282Z" fill="#05C1F1" stroke="black" stroke-width="5"/>
<path d="M488.022 287.487C486.581 325.592 474.518 344.634 456.114 354.209C437.311 363.992 411.328 364.269 381.011 363.122C350.714 361.976 323.35 359.69 303.885 348.414C294.248 342.832 286.556 335.042 281.418 324.009C276.261 312.936 273.61 298.451 274.33 279.403C277.223 202.923 327.901 143.854 386.373 146.066C444.844 148.277 490.915 211.006 488.022 287.487Z" fill="#05C1F1" stroke="black" stroke-width="5"/>
<path d="M471.002 354.258C471.982 360.782 468.952 367.586 462.63 373.331C456.323 379.062 446.943 383.512 435.966 385.161C424.989 386.81 414.716 385.311 407.004 381.686C399.273 378.051 394.378 372.438 393.398 365.914C392.418 359.389 395.448 352.586 401.77 346.841C408.078 341.11 417.457 336.66 428.434 335.011C439.411 333.363 449.684 334.861 457.396 338.486C465.127 342.121 470.022 347.734 471.002 354.258Z" fill="#FF4431" stroke="black" stroke-width="5"/>
<path d="M412.846 366.879C415.89 372.732 415.232 380.151 411.116 387.636C407.01 395.104 399.582 402.357 389.734 407.478C379.886 412.6 369.683 414.516 361.211 413.589C352.719 412.66 346.268 408.939 343.224 403.086C340.18 397.232 340.838 389.814 344.954 382.329C349.06 374.861 356.488 367.608 366.336 362.487C376.184 357.365 386.388 355.449 394.859 356.376C403.351 357.305 409.802 361.025 412.846 366.879Z" fill="#FF8CBD" stroke="black" stroke-width="5"/>
<path d="M465.034 361.848C463.417 368.244 465.764 375.313 471.491 381.651C477.204 387.975 486.101 393.325 496.863 396.044C507.625 398.764 517.995 398.283 526.027 395.433C534.077 392.576 539.5 387.471 541.117 381.074C542.733 374.678 540.386 367.61 534.659 361.271C528.946 354.948 520.049 349.598 509.287 346.878C498.526 344.159 488.155 344.64 480.124 347.49C472.073 350.347 466.65 355.451 465.034 361.848Z" fill="#FF8CBD" stroke="black" stroke-width="5"/>
<path d="M409.563 356.84C409.886 363.43 406.191 369.896 399.326 374.981C392.477 380.053 382.7 383.543 371.613 384.086C360.526 384.629 350.455 382.112 343.143 377.734C335.814 373.345 331.505 367.27 331.182 360.68C330.859 354.091 334.554 347.625 341.419 342.54C348.267 337.468 358.045 333.978 369.132 333.435C380.218 332.892 390.29 335.409 397.602 339.788C404.931 344.177 409.24 350.25 409.563 356.84Z" fill="#FF8CBD" stroke="black" stroke-width="5"/>
<path d="M465.921 351.323C467.122 357.811 472.205 363.255 480.055 366.624C487.887 369.985 498.205 371.134 509.119 369.113C520.034 367.092 529.257 362.326 535.365 356.384C541.489 350.427 544.286 343.524 543.084 337.037C541.883 330.55 536.801 325.106 528.951 321.737C521.119 318.376 510.801 317.228 499.887 319.248C488.972 321.269 479.749 326.035 473.641 331.978C467.517 337.934 464.72 344.836 465.921 351.323Z" fill="#FF8CBD" stroke="black" stroke-width="5"/>
</svg>
