<svg width="173" height="144" viewBox="0 0 173 144" fill="none" xmlns="http://www.w3.org/2000/svg">
<path d="M147.997 23.6873C158.722 37.2341 166.119 59.9342 168.338 69.0874C170.557 78.2407 171.297 87.0279 168.338 93.2521C165.379 99.4763 156.503 110.094 147.997 117.051C139.49 124.007 114.71 143.777 98.0668 140.849C81.4237 137.921 75.506 130.964 72.1774 124.007C68.8488 117.051 66.6296 88.1248 66.9995 78.2407C67.3694 68.3566 12.1074 10.2304 17.6551 4.37228C23.2029 -1.48581 137.271 10.1404 147.997 23.6873Z" fill="#F7DE1C" stroke="black" stroke-width="5"/>
<path d="M116.838 137.462C116.838 137.462 120.996 101.659 114.463 76.5019C107.929 51.3446 100.201 36.8628 74.4805 6.5752" stroke="black" stroke-width="5"/>
<path d="M3.61323 72.1044C-2.30437 71.7369 17.2977 5.10391 17.2977 5.10391C17.2977 5.10391 17.6675 2.90569 26.5439 2.53956C35.4203 2.17343 73.1449 4.37172 73.8846 6.93456C74.6243 9.4974 9.53082 72.4719 3.61323 72.1044Z" fill="#F7DE1C" stroke="black" stroke-width="5"/>
</svg>
