<svg width="764" height="383" viewBox="0 0 764 383" fill="none" xmlns="http://www.w3.org/2000/svg">
<path d="M295.499 377.523C273.469 377.523 4.90304 180 5.40304 174.5C5.90304 169 390.338 106.597 390.338 106.597C390.338 106.597 758.734 173.306 758.403 175.5C758.073 177.694 557.613 377.523 532.223 377.523H295.499Z" fill="#FF4431" stroke="black" stroke-width="10"/>
<path d="M236.146 5C205.155 5 7.39888 173 5.02193 174.701C2.64498 176.403 236.146 174.701 236.146 174.701C236.146 174.701 364.59 238.712 387.367 239.084C410.143 239.456 562.11 174.701 562.11 174.701C562.11 174.701 757.902 177 758.51 174.701C759.117 172.403 592.727 5 562.11 5C531.493 5 418.357 94.6886 387.367 95.8051C356.376 96.9216 267.137 5 236.146 5Z" fill="#FF4431" stroke="black" stroke-width="10"/>
<path d="M207.007 233.127L177.883 175.815C177.883 175.815 237.34 173.131 238.371 175.815C239.401 178.5 207.007 233.127 207.007 233.127Z" fill="white" stroke="black" stroke-width="10"/>
<path d="M593.828 233.127C593.828 233.127 564.903 178.5 564.704 175.815C564.504 173.131 625.192 175.815 625.192 175.815L593.828 233.127Z" fill="white" stroke="black" stroke-width="10"/>
</svg>
