<svg width="233" height="233" viewBox="0 0 233 233" fill="none" xmlns="http://www.w3.org/2000/svg">
<circle cx="116.163" cy="116.163" r="116.163" fill="white"/>
<path d="M115.518 161.66C148.388 161.66 177.973 175.604 198.586 197.85C177.53 219.136 148.306 232.326 115.999 232.326C83.4379 232.326 54.0058 218.929 32.9141 197.347C53.5057 175.393 82.8943 161.66 115.518 161.66Z" fill="#2B50AA"/>
<path d="M115.682 41.2207C147.734 41.2209 173.683 66.9912 173.683 98.7383C173.683 130.485 147.734 156.256 115.682 156.256C83.6293 156.256 57.6797 130.485 57.6797 98.7383C57.6797 66.9911 83.6293 41.2207 115.682 41.2207Z" fill="#2B50AA" stroke="#FFFDFD" stroke-width="5"/>
<circle cx="116.163" cy="116.163" r="111.163" stroke="black" stroke-width="10"/>
</svg>
