<svg width="1680" height="350" viewBox="0 0 1680 350" fill="none" xmlns="http://www.w3.org/2000/svg">
<mask id="path-1-inside-1_64_126" fill="white">
<path d="M1326.86 148.137H1679.3V349.83H-2.65625V148.137H1188.14L1257.5 0L1326.86 148.137Z"/>
</mask>
<path d="M1326.86 148.137H1679.3V349.83H-2.65625V148.137H1188.14L1257.5 0L1326.86 148.137Z" fill="#2B50AA"/>
<path d="M1326.86 148.137L1317.8 152.377L1320.5 158.137H1326.86V148.137ZM1679.3 148.137H1689.3V138.137H1679.3V148.137ZM1679.3 349.83V359.83H1689.3V349.83H1679.3ZM-2.65625 349.83H-12.6562V359.83H-2.65625V349.83ZM-2.65625 148.137V138.137H-12.6562V148.137H-2.65625ZM1188.14 148.137V158.137H1194.5L1197.2 152.377L1188.14 148.137ZM1257.5 0L1266.56 -4.24024L1257.5 -23.5835L1248.44 -4.24024L1257.5 0ZM1326.86 148.137V158.137H1679.3V148.137V138.137H1326.86V148.137ZM1679.3 148.137H1669.3V349.83H1679.3H1689.3V148.137H1679.3ZM1679.3 349.83V339.83H-2.65625V349.83V359.83H1679.3V349.83ZM-2.65625 349.83H7.34375V148.137H-2.65625H-12.6562V349.83H-2.65625ZM-2.65625 148.137V158.137H1188.14V148.137V138.137H-2.65625V148.137ZM1188.14 148.137L1197.2 152.377L1266.56 4.24024L1257.5 0L1248.44 -4.24024L1179.09 143.896L1188.14 148.137ZM1257.5 0L1248.44 4.24024L1317.8 152.377L1326.86 148.137L1335.91 143.896L1266.56 -4.24024L1257.5 0Z" fill="black" mask="url(#path-1-inside-1_64_126)"/>
</svg>
