<svg width="365" height="403" viewBox="0 0 365 403" fill="none" xmlns="http://www.w3.org/2000/svg">
<path d="M67.3906 114.571C95.7118 99.9307 137.288 99.4117 189.652 121.519L190.657 121.942L191.652 121.494C237.292 100.897 276.72 101.376 304.583 115.671C332.382 129.932 349.146 158.179 349.146 194.255C349.146 230.79 338.873 282.315 313.832 324.621C288.837 366.85 249.295 399.676 190.624 399.676C131.92 399.676 90.2145 366.812 63.0703 324.543C35.8865 282.213 23.5039 230.706 23.5039 194.255C23.504 158.1 39.1585 129.166 67.3906 114.571Z" fill="#FF4431" stroke="black" stroke-width="5"/>
<path d="M186.335 121.118C188.972 122.576 191.342 123.863 192.411 124.076C193.931 124.179 195.279 124.957 196.095 124.686C196.911 124.414 197.81 124.396 199.057 123.906C204.068 121.587 207.082 119.425 208.795 117.281C210.526 115.116 212.649 112.74 214.887 111.841C217.967 110.603 223.103 108.825 227.34 108.45C233.399 107.914 241.738 106.592 250.038 106.404C254.752 106.298 263.264 105.684 269.426 106.847C284.225 109.64 287.222 109.839 292.691 111.852C296.935 113.415 300.076 113.979 305.566 116.974C310.311 119.563 319.139 123.138 325.009 129.151C327.534 131.737 329.282 133.199 331.579 134.804C334.432 136.799 336.665 139.411 339.55 144.24C341.543 147.576 343.846 152.604 345.692 157.553C347.678 162.878 348.349 165.875 348.485 169.737C348.758 177.534 349.78 179.999 349.994 182.812C350.264 186.365 350.628 188.517 350.856 194.236C351.124 200.982 349.622 210.812 351.667 215.407C353.18 218.806 355.55 221.371 356.895 224.076C358.345 226.99 359.865 230.253 360.448 233.671C361.144 237.76 362.262 239.898 362.006 244.97C361.241 260.09 359.582 265.066 357.527 266.902C356.506 267.816 354.685 269.272 352.729 268.672C350.251 267.913 347.7 266.265 346.972 263.924C346.165 261.331 345.321 257.852 344.439 252.976C343.256 246.43 342.93 239.943 341.368 237.579C339.907 235.368 338.242 230.467 333.863 229.61C330.85 229.02 327.473 228.119 324.595 229.026C319.103 230.759 313.268 233.208 312.816 236.573C312.335 240.159 312.07 245.818 313.098 250.178C315.354 259.747 316.18 265.245 314.917 270.573C314.164 273.75 314.674 277.736 312.325 278.862C309.303 280.312 306.567 284.171 302.243 283.055C299.932 282.459 297.416 280.458 296.113 277.982C294.44 274.804 293.017 272.408 291.747 269.194C289.701 264.014 288.341 258.349 286.524 254.925C285.066 252.177 285.15 247.596 278.037 241.219C273.303 236.975 267.112 234.704 261.56 235.003C258.56 235.165 256.672 235.858 255.003 236.946C252.412 238.633 246.964 243.055 246.823 247.904C246.716 251.563 247.639 255.049 247.851 257.975C248.333 264.622 249.13 271.509 245.632 279.089C244.014 282.594 243.03 287.433 237.434 290.069C235.503 290.979 233.888 291.493 232.647 290.918C232.054 290.643 231.506 290.157 231.194 289.184C229.798 284.818 228.287 281.954 227.805 278.193C227.315 274.371 226.312 271.392 224.623 263.583C223.436 258.099 222.286 254.31 219.976 251.138C214.922 244.199 213.26 239.752 210.183 238.386C205.6 236.351 197.303 235.827 195.206 238.134C193.588 239.913 190.946 243.296 189.709 247.362C187.776 253.716 186.117 256.774 187.026 264.174C187.673 269.438 189.063 271.754 190.262 274.124C192.101 277.759 195.646 283.511 197.971 288.954C200.499 294.871 202.236 297.539 202.272 300.963C202.322 305.751 201.94 309.245 199.785 312.594C197.461 316.205 195.834 319.525 192.563 320.666C190.246 321.474 187.72 325.028 184.374 324.595C181.841 324.267 178.317 323.489 176.35 319.948C174.187 316.056 172.552 312.252 171.019 308.312C169.888 305.402 169.149 301.486 167.68 297C166.869 294.522 165.013 289.64 164.341 286.013C163.636 282.206 162.718 276.898 161.967 270.836C161.16 264.325 159.369 256.461 157.655 250.003C156.745 246.575 156.401 244.733 155.227 242.902C151.773 237.515 147.634 232.351 143.645 231.876C142.302 231.716 140.929 231.734 140.258 232.53C139.936 232.912 139.824 233.442 139.117 234.756C135.404 241.659 134.164 245.833 132.117 250.595C129.806 255.972 128.38 259.996 125.327 260.918C124.621 261.131 123.751 261.199 122.517 260.856C117.296 259.405 114.192 258.828 112.024 257.139C111.058 256.386 110.162 254.336 109.656 251.141C108.692 245.046 108.565 239.56 107.557 236.285C106.642 233.313 106.463 229.273 104.215 226.103C101.988 222.962 97.6216 218.396 93.6947 218.246C90.897 218.14 88.1614 218.482 86.648 219.709L86.6119 219.738C85.5004 220.639 84.5301 221.425 84.0103 223.227C82.1792 229.576 80.5274 232.44 79.5965 239.765C79.0566 244.012 78.6077 249.252 76.6323 255.164C75.7143 257.911 75.5854 261.176 73.6666 262.485L73.5668 262.553C70.9701 264.326 67.251 266.865 64.3313 265.973C61.1554 265.003 58.7049 263.898 57.6111 263.119C55.5633 261.661 53.1362 260.516 51.7943 258.159C50.288 255.513 49.4295 252.337 48.5635 248.125C47.3788 242.363 46.8141 238.846 45.8159 235.797C44.5795 232.02 44.7144 228.591 44.6361 224.244C44.4696 215.004 44.3115 212.805 43.6098 208.373C43.0732 204.984 43.2006 197.115 38.3102 195.938C35.1893 195.186 32.6699 194.505 31.6967 195.141C30.4603 195.949 28.6086 197.91 26.5798 201.019C24.7518 203.82 24.1663 206.104 22.2709 208.234C20.4398 210.291 18.1164 214.939 14.3967 215.124C12.2455 215.23 10.3564 214.86 9.01311 213.711C5.99726 211.132 2.54993 210.415 2.50461 207.731C2.45451 204.764 2.76422 198.246 5.85341 195.884C6.76657 195.186 7.9226 194.35 9.41232 193.622C11.9449 192.384 14.7549 190.741 16.8986 188.88C18.9464 187.102 21.9272 185.525 23.3603 181.71C24.3316 179.124 24.9999 176.953 25.4048 174.272C25.9414 170.72 25.8191 171.414 26.5798 159.079C26.848 154.728 27.7327 150.549 30.3833 145.791C32.3973 142.175 34.8633 139.917 38.3102 137.192C41.9257 134.335 43.433 131.855 46.0165 130.159C49.9248 127.595 51.3264 125.798 53.8331 123.906C56.0522 122.232 59.0954 121.831 62.6537 119.753C68.7323 116.202 70.827 113.713 73.4662 112.596C75.6238 111.683 77.8175 109.895 81.0123 109.095C84.0281 108.34 87.0521 108.178 89.3051 106.831C91.4627 105.541 93.8188 104.599 96.473 104.303C97.9243 104.142 107.859 102.875 121.788 104.255C128.316 104.901 131.149 106.335 134.031 106.677C138.12 107.164 141.384 107.634 145.557 108.563C149.433 109.427 153.173 110.998 156.651 111.309C159.667 111.579 161.984 112.609 165.922 113.682C169.688 114.708 174.25 115.687 177.93 116.914C181.007 117.941 183.675 119.649 186.335 121.118Z" fill="#01B37F" stroke="black" stroke-width="5" stroke-linecap="round"/>
<path d="M190.667 141.69C190.449 142.285 190.48 142.956 190.737 143.55C190.995 144.145 191.458 144.614 192.041 144.86C192.623 145.107 193.282 145.113 193.889 144.884C194.494 144.655 194.998 144.209 195.272 143.639C195.272 143.639 195.272 143.639 195.272 143.639C196.254 141.585 197.233 139.487 198.203 137.392C205.818 120.441 213.692 104.044 218.646 85.0042C218.648 84.9935 218.65 84.9828 218.653 84.972C222.939 61.5521 224.43 39.056 226.44 16.1384C226.624 13.8574 226.807 11.5076 226.979 9.24697C227.159 6.86405 226.374 4.55251 224.732 2.81904C223.093 1.08567 220.73 0.0723724 218.229 0.00386429C215.729 -0.0646439 213.314 0.81777 211.583 2.45879C209.847 4.09971 208.937 6.36482 208.986 8.75401C208.986 8.75401 208.986 8.75401 208.986 8.75401C209.033 10.9407 209.066 13.3001 209.1 15.5593C209.284 38.1535 209.817 61.4073 207.933 83.1077C207.932 83.1165 207.931 83.1253 207.93 83.1341C205.235 100.116 198.876 118.03 192.968 135.264C192.208 137.421 191.429 139.601 190.667 141.69Z" fill="black"/>
</svg>
