<svg width="163" height="161" viewBox="0 0 163 161" fill="none" xmlns="http://www.w3.org/2000/svg">
<path d="M81.2021 5C123.33 5 157.405 38.8327 157.405 80.4727C157.405 122.113 123.33 155.945 81.2021 155.945C39.0742 155.945 5 122.113 5 80.4727C5.00007 38.8328 39.0742 5.00014 81.2021 5Z" fill="#F7DE1C" stroke="black" stroke-width="10"/>
<path d="M80.4766 36.3357C105.539 36.3359 125.778 56.4587 125.778 81.1863C125.778 105.914 105.539 126.037 80.4766 126.037C55.4142 126.037 35.1739 105.914 35.1738 81.1863C35.1738 56.4585 55.4141 36.3357 80.4766 36.3357Z" fill="black" stroke="black" stroke-width="10"/>
<path d="M117.123 56.2745C128.295 56.2746 137.274 65.2376 137.274 76.1993C137.274 87.1612 128.295 96.125 117.123 96.1251C105.951 96.1251 96.9717 87.1613 96.9717 76.1993C96.9719 65.2376 105.951 56.2745 117.123 56.2745Z" fill="white" stroke="black" stroke-width="10"/>
</svg>
