<svg width="312" height="154" viewBox="0 0 312 154" fill="none" xmlns="http://www.w3.org/2000/svg">
<mask id="path-1-inside-1_15_7" fill="white">
<path d="M0 153.823C0.387376 68.8032 70.0506 4.96772e-05 155.933 1.35096e-05C241.815 6.069e-06 311.478 68.8031 311.865 153.823L0 153.823Z"/>
</mask>
<path d="M0 153.823C0.387376 68.8032 70.0506 4.96772e-05 155.933 1.35096e-05C241.815 6.069e-06 311.478 68.8031 311.865 153.823L0 153.823Z" fill="#FF8CBD"/>
<path d="M0 153.823L-9.99991 153.778L-10.0457 163.823L8.82154e-07 163.823L0 153.823ZM155.933 1.35096e-05L155.933 -9.99999V-9.99999L155.933 1.35096e-05ZM311.865 153.823L311.865 163.823L321.911 163.823L321.865 153.778L311.865 153.823ZM0 153.823L9.99991 153.869C10.3618 74.4354 75.4738 10.0001 155.933 10L155.933 1.35096e-05L155.933 -9.99999C64.6275 -9.99995 -9.58707 63.171 -9.99991 153.778L0 153.823ZM155.933 1.35096e-05L155.933 10C236.391 10 301.503 74.4353 301.865 153.869L311.865 153.823L321.865 153.778C321.452 63.171 247.238 -9.99999 155.933 -9.99999L155.933 1.35096e-05ZM311.865 153.823L311.865 143.823L-8.82154e-07 143.823L0 153.823L8.82154e-07 163.823L311.865 163.823L311.865 153.823Z" fill="black" mask="url(#path-1-inside-1_15_7)"/>
</svg>
