<svg width="707" height="555" viewBox="0 0 707 555" fill="none" xmlns="http://www.w3.org/2000/svg">
<path d="M276.402 551.047C256.378 551.047 8.62305 369.058 8.62305 369.058L362.607 304.786L699.281 369.058C699.281 369.058 514.653 551.047 491.575 551.047H276.402Z" fill="#FF4431" stroke="black" stroke-width="7"/>
<path d="M222.455 212.441C194.286 212.441 12.373 366.692 12.373 366.692H222.455C222.455 366.692 339.205 424.875 359.908 425.213C380.611 425.551 518.743 366.692 518.743 366.692H697.262C697.262 366.692 546.573 212.441 518.743 212.441C490.913 212.441 388.078 293.964 359.908 294.979C331.739 295.994 250.625 212.441 222.455 212.441Z" fill="#FF4431" stroke="black" stroke-width="7"/>
<path d="M195.977 419.8L169.505 367.706H224.486L195.977 419.8Z" fill="white" stroke="black" stroke-width="7"/>
<path d="M547.565 419.8L521.093 367.706H576.074L547.565 419.8Z" fill="white" stroke="black" stroke-width="7"/>
<path d="M177.929 21.563C244.853 21.563 299.093 75.635 299.093 142.319C299.093 209.003 244.854 263.076 177.929 263.076C111.004 263.076 56.7646 209.003 56.7646 142.319C56.7649 75.635 111.004 21.563 177.929 21.563Z" fill="white" stroke="black" stroke-width="5"/>
<path d="M177.946 77.228C212.139 77.228 239.843 104.853 239.843 138.913C239.843 172.972 212.138 200.596 177.946 200.596C143.754 200.596 116.05 172.972 116.05 138.913C116.05 104.853 143.754 77.2281 177.946 77.228Z" fill="#F7DE1C" stroke="black" stroke-width="5"/>
<path d="M177.378 102.22C198.036 102.22 214.769 118.909 214.77 139.479C214.77 160.05 198.037 176.74 177.378 176.74C156.719 176.74 139.986 160.05 139.986 139.479C139.987 118.909 156.719 102.22 177.378 102.22Z" fill="black" stroke="black" stroke-width="5"/>
<path d="M206.452 118.124C216.095 118.124 223.897 125.913 223.897 135.503C223.897 145.094 216.095 152.883 206.452 152.883C196.809 152.883 189.006 145.094 189.006 135.503C189.006 125.913 196.809 118.124 206.452 118.124Z" fill="white" stroke="black" stroke-width="5"/>
<mask id="path-9-inside-1_21_427" fill="white">
<path d="M54.2959 136.071C54.6029 68.2601 109.848 13.3829 177.956 13.3828C246.064 13.3828 301.309 68.26 301.616 136.071L54.2959 136.071Z"/>
</mask>
<path d="M54.2959 136.071C54.6029 68.2601 109.848 13.3829 177.956 13.3828C246.064 13.3828 301.309 68.26 301.616 136.071L54.2959 136.071Z" fill="#FF8CBD"/>
<path d="M54.2959 136.071L49.2959 136.049L49.2732 141.071L54.2959 141.071L54.2959 136.071ZM177.956 13.3828L177.956 8.38282L177.956 8.38282L177.956 13.3828ZM301.616 136.071L301.616 141.071L306.639 141.071L306.616 136.049L301.616 136.071ZM54.2959 136.071L59.2959 136.094C59.5903 71.0493 112.587 18.3829 177.956 18.3828L177.956 13.3828L177.956 8.38282C107.11 8.38291 49.6154 65.4708 49.2959 136.049L54.2959 136.071ZM177.956 13.3828L177.956 18.3828C243.325 18.3828 296.322 71.0492 296.616 136.094L301.616 136.071L306.616 136.049C306.297 65.4707 248.802 8.38282 177.956 8.38282L177.956 13.3828ZM301.616 136.071L301.616 131.071L54.2959 131.071L54.2959 136.071L54.2959 141.071L301.616 141.071L301.616 136.071Z" fill="black" mask="url(#path-9-inside-1_21_427)"/>
<path d="M531.31 17.6514C598.234 17.6514 652.473 71.7233 652.474 138.407C652.474 205.091 598.234 259.164 531.31 259.164C464.385 259.164 410.146 205.091 410.146 138.407C410.146 71.7234 464.385 17.6514 531.31 17.6514Z" fill="white" stroke="black" stroke-width="5"/>
<path d="M531.291 73.3159C565.483 73.3159 593.188 100.941 593.188 135C593.187 169.06 565.483 196.684 531.291 196.684C497.099 196.684 469.395 169.06 469.395 135C469.395 100.941 497.099 73.3159 531.291 73.3159Z" fill="#F7DE1C" stroke="black" stroke-width="5"/>
<path d="M530.748 98.3081C551.407 98.3081 568.139 114.998 568.14 135.568C568.14 156.138 551.407 172.829 530.748 172.829C510.089 172.829 493.356 156.138 493.356 135.568C493.357 114.998 510.09 98.3081 530.748 98.3081Z" fill="black" stroke="black" stroke-width="5"/>
<path d="M559.823 114.212C569.466 114.212 577.268 122.001 577.269 131.592C577.269 141.183 569.466 148.971 559.823 148.972C550.18 148.972 542.377 141.183 542.377 131.592C542.377 122.001 550.18 114.212 559.823 114.212Z" fill="white" stroke="black" stroke-width="5"/>
<mask id="path-15-inside-2_21_427" fill="white">
<path d="M407.651 132.159C407.959 64.3478 463.204 9.47121 531.312 9.4712C599.419 9.47136 654.664 64.3479 654.972 132.159L407.651 132.159Z"/>
</mask>
<path d="M407.651 132.159C407.959 64.3478 463.204 9.47121 531.312 9.4712C599.419 9.47136 654.664 64.3479 654.972 132.159L407.651 132.159Z" fill="#FF8CBD"/>
<path d="M407.651 132.159L402.651 132.136L402.629 137.159L407.651 137.159L407.651 132.159ZM531.312 9.4712L531.312 4.4712L531.312 4.4712L531.312 9.4712ZM654.972 132.159L654.972 137.159L659.994 137.159L659.972 132.136L654.972 132.159ZM407.651 132.159L412.651 132.181C412.946 67.1371 465.942 14.4712 531.312 14.4712L531.312 9.4712L531.312 4.4712C460.466 4.47121 402.971 61.5585 402.651 132.136L407.651 132.159ZM531.312 9.4712L531.311 14.4712C596.68 14.4713 649.677 67.1372 649.972 132.181L654.972 132.159L659.972 132.136C659.652 61.5586 602.157 4.47136 531.312 4.4712L531.312 9.4712ZM654.972 132.159L654.972 127.159L407.651 127.159L407.651 132.159L407.651 137.159L654.972 137.159L654.972 132.159Z" fill="black" mask="url(#path-15-inside-2_21_427)"/>
<path d="M352.225 2.50607C330.693 3.0861 330.693 43.108 330.693 43.108L272.498 186.375C272.498 186.375 228.27 206.676 229.434 238.577C230.598 270.479 289.374 286.14 289.374 286.14C289.374 286.14 323.127 345.303 365.027 342.402C406.928 339.502 431.951 286.14 431.951 286.14C431.951 286.14 484.909 276.279 488.982 238.577C493.056 200.876 431.951 186.375 431.951 186.375L376.666 43.108C376.666 43.108 373.757 1.92604 352.225 2.50607Z" fill="#F7DE1C" stroke="black" stroke-width="5"/>
<path d="M232.33 244.955C232.33 244.955 262.009 235.674 277.14 244.955C292.271 254.235 288.197 286.14 288.197 286.14" stroke="black" stroke-width="5"/>
<path d="M490.13 244.443C490.13 244.443 462.778 235.163 447.648 244.443C432.517 253.723 432.517 285.045 432.517 285.045" stroke="black" stroke-width="5"/>
<path d="M672.35 2.95117V40.7665H405.035V2.95117H672.35Z" fill="black"/>
<path d="M302.021 2.95117V40.7665H34.7061V2.95117H302.021Z" fill="black"/>
</svg>
