<svg width="304" height="181" viewBox="0 0 304 181" fill="none" xmlns="http://www.w3.org/2000/svg">
<circle cx="151.794" cy="90.3491" r="90.3491" fill="white" fill-opacity="0.5"/>
<path d="M151.289 125.736C176.855 125.736 199.866 136.581 215.898 153.883C199.522 170.439 176.791 180.699 151.664 180.699C126.339 180.699 103.448 170.278 87.043 153.492C103.059 136.417 125.916 125.736 151.289 125.736Z" fill="#2B50AA" fill-opacity="0.5"/>
<ellipse cx="151.418" cy="76.7966" rx="47.0568" ry="46.6803" fill="#2B50AA" fill-opacity="0.5"/>
<circle cx="151.794" cy="90.3491" r="86.8491" stroke="black" stroke-opacity="0.5" stroke-width="7"/>
<circle cx="90.3491" cy="90.3491" r="90.3491" fill="white"/>
<path d="M89.8398 125.736C115.406 125.736 138.416 136.581 154.448 153.882C138.072 170.439 115.342 180.699 90.2148 180.699C64.8897 180.699 41.9984 170.278 25.5938 153.492C41.6095 136.417 64.4665 125.736 89.8398 125.736Z" fill="#05C1F1"/>
<path d="M89.9668 33.6162C114.049 33.6162 133.523 52.9755 133.523 76.7969C133.523 100.618 114.049 119.977 89.9668 119.977C65.8847 119.976 46.4103 100.618 46.4102 76.7969C46.4102 52.9755 65.8846 33.6163 89.9668 33.6162Z" fill="#05C1F1" stroke="#FFFDFD" stroke-width="7"/>
<circle cx="90.3491" cy="90.3491" r="86.8491" stroke="black" stroke-width="7"/>
<path d="M210.016 174.448C209.248 174.448 208.587 174.192 208.032 173.68C207.477 173.168 207.2 172.528 207.2 171.76C207.2 171.035 207.477 170.416 208.032 169.904C208.587 169.349 209.248 169.072 210.016 169.072C210.784 169.072 211.445 169.349 212 169.904C212.597 170.416 212.896 171.035 212.896 171.76C212.896 172.528 212.597 173.168 212 173.68C211.445 174.192 210.784 174.448 210.016 174.448ZM222.141 174.448C221.373 174.448 220.712 174.192 220.157 173.68C219.602 173.168 219.325 172.528 219.325 171.76C219.325 171.035 219.602 170.416 220.157 169.904C220.712 169.349 221.373 169.072 222.141 169.072C222.909 169.072 223.57 169.349 224.125 169.904C224.722 170.416 225.021 171.035 225.021 171.76C225.021 172.528 224.722 173.168 224.125 173.68C223.57 174.192 222.909 174.448 222.141 174.448ZM234.266 174.448C233.498 174.448 232.837 174.192 232.282 173.68C231.727 173.168 231.45 172.528 231.45 171.76C231.45 171.035 231.727 170.416 232.282 169.904C232.837 169.349 233.498 169.072 234.266 169.072C235.034 169.072 235.695 169.349 236.25 169.904C236.847 170.416 237.146 171.035 237.146 171.76C237.146 172.528 236.847 173.168 236.25 173.68C235.695 174.192 235.034 174.448 234.266 174.448ZM264.355 174.64C261.24 174.64 258.83 173.915 257.123 172.464C255.459 171.013 254.627 168.731 254.627 165.616V162.736H259.555V166.256C259.555 168.048 259.96 169.371 260.771 170.224C261.624 171.035 262.798 171.44 264.291 171.44C265.912 171.44 267.171 170.949 268.067 169.968C269.006 168.944 269.475 167.643 269.475 166.064V156.592C268.75 157.701 267.768 158.533 266.531 159.088C265.294 159.643 263.95 159.92 262.499 159.92C260.963 159.92 259.555 159.6 258.275 158.96C257.038 158.32 256.056 157.339 255.331 156.016C254.606 154.693 254.243 153.029 254.243 151.024V145.392C254.243 143.515 254.606 141.872 255.331 140.464C256.099 139.056 257.23 137.947 258.723 137.136C260.259 136.325 262.179 135.92 264.483 135.92C266.787 135.92 268.664 136.325 270.115 137.136C271.608 137.947 272.696 139.099 273.379 140.592C274.104 142.085 274.467 143.856 274.467 145.904V165.424C274.467 168.411 273.528 170.693 271.651 172.272C269.816 173.851 267.384 174.64 264.355 174.64ZM264.419 156.72C265.827 156.72 267 156.293 267.939 155.44C268.92 154.587 269.432 153.456 269.475 152.048V144.752C269.475 142.832 269.006 141.403 268.067 140.464C267.171 139.525 265.934 139.035 264.355 138.992C262.862 138.992 261.624 139.461 260.643 140.4C259.662 141.339 259.171 142.789 259.171 144.752V151.536C259.171 153.285 259.683 154.587 260.707 155.44C261.774 156.251 263.011 156.677 264.419 156.72ZM289.605 174.64C286.49 174.64 284.08 173.915 282.373 172.464C280.709 171.013 279.877 168.731 279.877 165.616V162.736H284.805V166.256C284.805 168.048 285.21 169.371 286.021 170.224C286.874 171.035 288.048 171.44 289.541 171.44C291.162 171.44 292.421 170.949 293.317 169.968C294.256 168.944 294.725 167.643 294.725 166.064V156.592C294 157.701 293.018 158.533 291.781 159.088C290.544 159.643 289.2 159.92 287.749 159.92C286.213 159.92 284.805 159.6 283.525 158.96C282.288 158.32 281.306 157.339 280.581 156.016C279.856 154.693 279.493 153.029 279.493 151.024V145.392C279.493 143.515 279.856 141.872 280.581 140.464C281.349 139.056 282.48 137.947 283.973 137.136C285.509 136.325 287.429 135.92 289.733 135.92C292.037 135.92 293.914 136.325 295.365 137.136C296.858 137.947 297.946 139.099 298.629 140.592C299.354 142.085 299.717 143.856 299.717 145.904V165.424C299.717 168.411 298.778 170.693 296.901 172.272C295.066 173.851 292.634 174.64 289.605 174.64ZM289.669 156.72C291.077 156.72 292.25 156.293 293.189 155.44C294.17 154.587 294.682 153.456 294.725 152.048V144.752C294.725 142.832 294.256 141.403 293.317 140.464C292.421 139.525 291.184 139.035 289.605 138.992C288.112 138.992 286.874 139.461 285.893 140.4C284.912 141.339 284.421 142.789 284.421 144.752V151.536C284.421 153.285 284.933 154.587 285.957 155.44C287.024 156.251 288.261 156.677 289.669 156.72Z" fill="black"/>
</svg>
