<svg width="370" height="405" viewBox="0 0 370 405" fill="none" xmlns="http://www.w3.org/2000/svg">
<path d="M313.789 54.8578C285.999 25.0521 225.086 5.99472 195.102 2.59372C169.491 1.55258 117.351 9.08554 80.4952 30.7408C47.2319 50.2854 33.2282 71.1361 21.6533 109.412C5.57684 162.574 6.24487 203.738 4.37087 237.261C2.49686 270.785 -0.135899 343.036 9.15998 355.74C21.6529 372.815 27.1897 376.6 41.3489 376.6C63.2924 376.6 81.8295 369.275 86.6187 349.077C91.4078 328.88 77.8733 389.056 124.723 389.056C171.573 389.056 168.906 361.362 170.532 361.362C171.613 361.362 166.576 396.76 204.889 401.55C235.539 405.381 250.143 383.989 253.613 372.815C257.43 381.421 272.894 397.676 304.211 393.845C335.528 390.014 341.552 370.594 340.65 361.362V276.407C339.584 269.601 336.925 256.324 334.82 257.661C344.475 251.363 352.136 244.458 355.85 237.261C369.176 211.442 367.302 191.452 365.428 163.759C363.554 136.065 349.934 93.6242 313.789 54.8578Z" fill="#01B37F"/>
<path d="M247.991 192.493C245.423 196.935 237.039 207.319 224.045 213.316C207.804 220.812 195.102 214.357 180.11 213.316C165.118 212.275 142.006 222.894 130.554 237.261C121.392 248.755 119.657 264.4 119.934 270.785C120.559 276.824 123.557 288.901 130.554 288.901C139.299 288.901 160.121 282.238 180.11 288.901C200.1 295.564 228.834 292.649 253.613 288.901C271.485 286.197 309.832 273.961 334.82 257.661M334.82 257.661C344.475 251.363 352.136 244.458 355.85 237.261C369.176 211.442 367.302 191.452 365.428 163.759C363.554 136.065 349.934 93.6242 313.789 54.8578C285.999 25.0521 225.086 5.99471 195.102 2.59373C169.491 1.55258 117.351 9.08554 80.4952 30.7408C47.2319 50.2854 33.2282 71.1361 21.6533 109.412C5.57684 162.574 6.24487 203.738 4.37087 237.261C2.49686 270.785 -0.135899 343.036 9.15998 355.74C21.6529 372.815 27.1897 376.6 41.3489 376.6C63.2924 376.6 81.8295 369.275 86.6187 349.077C91.4078 328.88 77.8733 389.056 124.723 389.056C171.573 389.056 168.906 361.362 170.532 361.362C171.613 361.362 166.576 396.76 204.889 401.55C235.539 405.381 250.143 383.989 253.613 372.815C257.43 381.421 272.894 397.676 304.211 393.845C335.528 390.014 341.552 370.594 340.65 361.362V276.407C339.584 269.601 336.925 256.324 334.82 257.661Z" stroke="black" stroke-width="5"/>
<path d="M91.4482 287.271C92.1423 276.374 98.4868 252.119 105.399 245.835C109.98 241.671 120.599 238.131 128.512 239.172" stroke="black" stroke-width="5"/>
<path d="M170.365 361.191C173.211 337.454 178.278 289.479 175.779 287.48" stroke="black" stroke-width="5"/>
<path d="M87.0751 348.699C88.5324 344.951 93.1133 294.978 91.0311 281.443C88.9489 267.909 79.3292 247.461 58.3404 248.127C32.1044 248.96 1.28745 261.454 2.53678 303.098" stroke="black" stroke-width="5"/>
<path d="M253.861 373.686L256.36 288.522" stroke="black" stroke-width="5"/>
</svg>
