<svg width="68" height="83" viewBox="0 0 68 83" fill="none" xmlns="http://www.w3.org/2000/svg">
<path d="M33.7139 2.71094C41.2899 5.60029 48.9251 10.9595 54.7285 17.7119C60.7824 24.7558 64.6758 33.1104 64.6758 41.5342C64.6758 49.9119 60.8224 57.5115 54.7793 64.1201C49.0358 70.401 41.4276 75.6508 33.709 79.6162C25.9596 74.8186 18.2924 69.5444 12.4756 63.4229C6.38784 57.0161 2.50001 49.8686 2.5 41.5342C2.5 33.1299 6.30311 25.2994 12.3125 18.5127C18.0949 11.9824 25.8111 6.55253 33.7139 2.71094Z" fill="#01B37F" stroke="black" stroke-width="5"/>
<path d="M34.3965 17.0337C38.3695 21.1764 40.9203 24.683 42.5322 28.2134C44.3448 32.1832 45.0556 36.3665 45.0557 41.8286C45.0557 47.3845 44.5429 51.4706 42.8545 55.2876C41.3167 58.7641 38.7118 62.2131 34.2256 66.3706C29.9481 63.4269 27.045 60.0355 25.1553 56.2798C23.0339 52.0638 22.1152 47.2436 22.1152 41.8286C22.1153 36.497 23.15 32.2016 25.3438 28.1431C27.3004 24.5232 30.2346 20.9876 34.3965 17.0337Z" fill="black" stroke="black" stroke-width="5"/>
<path d="M48.3174 29.2915C53.8727 29.2915 58.6547 31.0375 62.8428 35.5825C60.1474 38.4006 58.1209 39.7397 56.2764 40.4331C54.0662 41.2639 51.8567 41.2915 48.3174 41.2915C45.01 41.2915 42.1714 40.9468 39.7207 39.9321C37.728 39.1071 35.8936 37.7959 34.249 35.6743C37.8915 31.1009 42.6505 29.2916 48.3174 29.2915Z" fill="white" stroke="black" stroke-width="5"/>
</svg>
