<svg width="522" height="707" viewBox="0 0 522 707" fill="none" xmlns="http://www.w3.org/2000/svg">
<path d="M38.5509 469.468C41.2423 465.235 44.1811 460.685 47.1101 455.979C49.7256 450.912 50.2114 436.869 53.9819 431.224C57.5721 425.849 59.8255 421.158 62.7101 414.953C64.7526 410.559 66.3442 405.543 69.4081 401.777C72.5893 397.866 74.4245 393.4 77.0783 389.081C79.7795 384.685 83.7398 379.55 88.3583 374.834C94.6399 368.419 98.9113 364.872 102.469 360.852C105.572 357.347 109.114 353.89 112.101 349.134C114.712 344.977 116.758 340.146 119.203 334.642C122.059 328.213 124.66 322.856 126.957 318.049C129.406 312.923 131.727 308.793 135.369 304.626C139.211 300.23 142.298 296.218 145.162 292.341C148.273 288.132 151.617 282.681 154.647 277.743L154.875 277.371C157.324 273.38 160.157 266.653 163.037 260.69C165.161 256.294 166.985 252.331 169.077 248.488C171.205 244.578 173.258 239.876 177.655 233.674C181.001 228.956 183.816 224.529 187.123 218.702C190.64 212.504 193.532 206.072 197.247 202.516C201.582 198.366 207.237 192.83 213.986 187.79C218.558 184.375 222.973 180.56 227.779 177.707C232.449 174.934 237.745 172.579 242.149 170.711C247.133 168.597 251.977 166.821 256.76 165.507C261.504 164.203 266.544 163.325 271.214 161.353C277.177 158.833 282.34 157.166 287.127 156.722C292.371 156.236 302.487 156.196 309.168 155.746C313.912 155.426 319.811 155.478 325.251 156.239C329.769 156.871 334.035 158.014 340.488 159.744L341.091 159.905C346.238 161.284 351.143 161.299 355.699 161.77C360.442 162.261 365.282 163.418 369.986 164.457C374.803 165.522 379.326 166.969 383.943 169.915C388.028 172.522 392.864 174.682 396.922 177.484C403.917 182.315 414.571 187.689 419.781 190.99C424.273 193.836 429.422 196.556 434.473 199.531C439.476 202.477 447.726 209.536 457.75 220.381C463.456 226.554 467.177 230.663 471.616 236.237C475.701 241.365 479.355 245.854 483.778 251.695C487.29 256.333 489.958 260.179 493.329 264.796C497.252 270.168 501.009 273.983 502.956 279.036C505.246 284.979 507.391 290.134 508.42 295.712C509.319 300.59 509.453 312.927 509.558 322.589L509.558 322.655C509.644 330.546 509.869 335.889 513.161 344.291C515.365 349.917 517.526 355.993 518.216 362.024C518.784 366.994 519.28 373.153 516.161 377.399C513.053 381.629 508.667 386.083 504.075 389.599C499.819 392.858 492.485 393.822 491.757 398.228C490.865 403.617 491.021 410.653 489.06 416.224C486.114 424.599 483.276 431.354 478.444 438.832C475.339 443.638 471.613 451.174 465.46 457.627C460.802 462.511 450.242 473.121 449.879 468.011C449.566 463.595 450.519 458.081 451.194 453.114C451.848 448.305 452.86 443.464 453.07 438.136L453.132 436.581C453.376 430.379 453.713 421.829 454.05 414.953C454.297 409.905 456.188 405.581 456.905 398.027C457.06 396.402 456.575 395.435 455.583 394.869C454.591 394.303 452.937 394.478 451.909 393.646C448.077 390.544 444.69 386.458 443.35 381.268C441.876 375.556 440.682 369.694 438.94 363.689C437.145 357.504 437.47 350.84 433.376 346.766C427.662 341.081 424.293 336.114 419.091 334.576C413.615 332.958 407.456 331.958 403.99 335.416C401.546 337.854 398.689 341.107 397.14 344.86C394.855 350.396 393.949 356.03 392.328 360.884C390.614 366.017 389.826 371.891 388.985 377.402C388.165 382.781 386.494 388.537 384.411 397.993C383.1 403.939 381.12 409.27 380.331 413.605C379.515 418.087 377.471 422.404 376.983 429.723C376.586 435.671 377.581 441.513 376.821 446.233C376.087 450.795 375.76 455.369 375.19 459.902C374.617 464.464 372.728 469.916 372.332 475.284C371.845 481.892 372.186 488.049 371.926 493.274C371.512 501.575 370.027 507.007 369.558 511.649C369.063 516.543 366.835 521.917 368.512 527.871C372.011 540.298 372.039 545.104 370.941 551.116C369.886 556.896 369.957 563.065 370.378 568.361C370.865 574.49 369.371 581.847 366.611 587.153C364.322 591.557 360.357 597.69 355.664 602.856C351.587 607.345 352.08 612.773 349.312 627.694C347.492 637.504 343.626 647.747 342.043 653.06C340.488 658.281 338.356 663.425 337.064 669.339C335.424 676.852 335.906 685.716 331.013 692.517C330.026 693.889 328.706 694.3 328.079 693.633C326.779 692.249 325.296 688.411 324.413 683.454C323.512 678.394 322.698 672.911 321.964 668.072C321.063 662.128 320.845 652.284 319.432 645.127C318.291 639.35 317.948 634.744 316.902 630.243C315.842 625.681 315.875 620.812 316.417 616.085C316.997 611.025 322.366 602.382 317.38 599.656C315.014 598.362 311.866 597.823 310.689 595.247C308.98 591.508 307.885 587.937 307.679 585.411C307.192 579.44 307.984 572.344 308.174 565.017C308.661 546.254 308.178 539.757 308.664 535.048C309.151 530.319 308.219 525.424 308.828 518.852C309.641 510.07 308.945 496.476 309.315 491.111C309.641 486.383 309.929 481.514 310.214 475.24C310.454 469.951 312.644 460.435 307.995 452.865C306.202 449.945 303.598 444.455 301.704 446.301C296.72 451.156 294.848 459.619 293.884 468.779C293.311 474.228 292.849 478.785 292.415 483.742C292.008 488.385 291.714 492.949 290.945 504.014C290.539 509.865 289.85 514.383 289.64 519.711C289.393 525.975 289.309 533.127 289.478 540.723C289.726 551.848 290.898 556.403 290.455 565.847C290.049 574.529 290.029 585.556 289.067 593.1C288.413 598.225 288.238 605.705 284.404 609.854C280.723 613.837 275.165 614.852 272.568 618.885C271.104 621.16 269.78 624.604 268.738 628.329C266.676 635.698 262.422 646.591 260.404 652.833C257.223 662.675 253.757 672.294 249.876 687.414C248.083 694.397 245.223 707.445 242.448 703.153C241.393 701.52 241.15 698.839 239.911 694.892C235.339 680.328 231.089 669.716 230.864 662.858C230.617 655.294 229.915 645.162 230.703 637.971C231.283 632.671 234.229 627.508 233.477 622.92C232.566 617.362 230.35 611.179 227.835 606.485C225.386 601.916 222.572 597.112 222.538 590.329C222.457 574.422 222.045 569.532 223.361 563.355C224.749 556.837 225.123 551.131 228.589 541.548L228.611 541.487C231.812 532.639 236.038 520.956 234.942 514.21C233.722 506.701 233.512 499.512 234.379 494.768C235.525 488.492 237.64 481.756 238.542 475.16C239.277 469.785 239.797 463.62 240.009 457.988C240.256 451.4 243.216 441.572 237.952 434.646C236.965 433.347 235.732 432.354 234.851 432.796C233.061 433.694 231.425 435.753 230.367 438.258C228.158 443.492 225.949 449.821 224.081 458.367C222.457 465.792 222.453 472.943 221.884 477.476C221.311 482.038 220.322 486.346 218.86 490.906C217.06 496.518 212.998 504.484 212.25 512.633C211.682 518.818 210.896 525.679 209.72 532.482C208.733 538.189 207.261 543.671 206.372 549.485C205.637 554.289 205.103 562.616 200.896 568.114C197.781 572.186 191.499 575.073 188.646 579.423C185.056 584.898 183.737 591.146 180.722 600.386C175.427 616.61 173.876 620.67 171.102 626.862C169.06 631.422 166.605 636.217 164.321 641.522C160.4 650.627 158.65 657.338 151.495 662.9C149.938 664.11 148.006 664.661 147.673 663.771C146.206 659.853 145.035 655.32 145.15 648.921C145.402 634.946 146.75 629.136 146.948 624.053C147.195 617.704 147.003 610.233 147.109 604.369C147.195 599.641 147.382 594.757 148.011 590.212C148.664 585.484 150.447 575.103 145.953 568.73C142.277 563.516 138.436 557.891 137.882 551.316C137.233 543.618 136.484 531.094 139.618 521.012C144.266 506.057 146.161 499.609 146.541 495.017C147.028 489.127 146.095 482.073 145.721 476.136C145.393 470.927 144.757 466.383 144.988 461.737C145.236 456.77 145.663 448.842 149.404 440.499C151.446 435.944 153.022 431.799 157.082 426.1C160.273 421.621 163.791 417.782 166.385 413.085C168.589 409.094 172.201 404.042 170.695 397.786C170.362 396.402 169.703 395.068 168.81 395.284C166.772 395.777 164.578 396.991 162.604 398.384C158.441 401.323 153.935 407.871 150.939 413.034C148.478 417.276 144.095 421.968 140.24 425.317C136.39 428.661 131.784 433.103 127.914 437.687C123.979 442.349 119.278 448.942 115.412 454.959C109.304 464.464 106.669 469.315 102.523 474.142C97.6864 479.773 91.1739 487.796 83.4946 489.427C77.7811 490.64 71.5953 486.3 67.1623 489.93C63.0872 493.267 59.4762 498.073 55.4097 501.077C45.2195 508.605 33.7333 516.122 29.9525 518.557C26.0293 521.083 22.2564 523.932 17.7052 526.204C13.2946 528.406 1.18444 536.331 2.61701 531.069C3.52804 527.722 5.88052 523.207 7.93377 518.94C9.89539 514.864 12.0362 510.766 15.0383 505.92C18.075 501.019 22.5325 494.799 25.826 489.464C31.946 479.549 34.9817 475.081 38.5509 469.468Z" fill="#01B37F" stroke="black" stroke-width="5" stroke-linecap="round"/>
<path d="M188.975 114.571C217.296 99.9307 258.872 99.4117 311.236 121.519L312.241 121.942L313.236 121.494C358.876 100.897 398.304 101.376 426.167 115.671C453.966 129.932 470.73 158.179 470.73 194.255C470.73 230.79 460.457 282.315 435.416 324.621C410.421 366.85 370.879 399.676 312.208 399.676C253.504 399.676 211.798 366.812 184.654 324.543C157.47 282.213 145.088 230.706 145.088 194.255C145.088 158.1 160.743 129.166 188.975 114.571Z" fill="#FF4431" stroke="black" stroke-width="5"/>
<path d="M312.251 141.69C312.033 142.285 312.064 142.956 312.321 143.55C312.579 144.145 313.042 144.614 313.625 144.86C314.207 145.107 314.866 145.113 315.473 144.884C316.078 144.655 316.582 144.209 316.856 143.639C316.856 143.639 316.856 143.639 316.856 143.639C317.838 141.585 318.817 139.487 319.787 137.392C327.402 120.441 335.275 104.044 340.23 85.0042C340.232 84.9935 340.234 84.9828 340.237 84.972C344.523 61.5521 346.014 39.056 348.024 16.1384C348.208 13.8574 348.391 11.5076 348.563 9.24697C348.743 6.86405 347.958 4.55251 346.316 2.81904C344.677 1.08567 342.314 0.0723724 339.813 0.00386429C337.313 -0.0646439 334.898 0.81777 333.167 2.45879C331.431 4.09971 330.521 6.36482 330.57 8.75401C330.57 8.75401 330.57 8.75401 330.57 8.75401C330.617 10.9407 330.65 13.3001 330.684 15.5593C330.868 38.1535 331.401 61.4073 329.517 83.1077C329.516 83.1165 329.515 83.1253 329.514 83.1341C326.819 100.116 320.46 118.03 314.552 135.264C313.792 137.421 313.013 139.601 312.251 141.69Z" fill="black"/>
</svg>
