<svg width="522" height="555" viewBox="0 0 522 555" fill="none" xmlns="http://www.w3.org/2000/svg">
<path d="M37.6779 317.183C40.3693 312.951 43.3081 308.401 46.237 303.695C48.8526 298.627 49.3383 284.584 53.1089 278.939C56.6991 273.564 58.9525 268.873 61.8371 262.668C63.8795 258.274 65.4712 253.258 68.535 249.492C71.7162 245.582 73.5514 241.116 76.2052 236.797C78.9065 232.401 82.8668 227.266 87.4852 222.549C93.7669 216.135 98.0383 212.587 101.596 208.568C104.699 205.063 108.241 201.605 111.228 196.849C113.839 192.692 115.885 187.862 118.33 182.357C121.186 175.928 123.787 170.571 126.084 165.764C128.533 160.638 130.854 156.508 134.496 152.342C138.338 147.945 141.425 143.933 144.289 140.056C147.4 135.847 150.744 130.397 153.774 125.459L154.002 125.086C156.451 121.096 159.284 114.368 162.164 108.405C164.288 104.009 166.112 100.046 168.204 96.2032C170.332 92.2929 172.385 87.5911 176.782 81.3894C180.128 76.6711 182.943 72.2446 186.25 66.4168C189.767 60.2194 192.659 53.7878 196.374 50.2312C200.709 46.0817 206.364 40.5458 213.113 35.5053C217.685 32.0905 222.1 28.2751 226.906 25.4219C231.576 22.649 236.872 20.2946 241.276 18.4263C246.26 16.3124 251.104 14.5365 255.887 13.2222C260.631 11.9188 265.671 11.0405 270.341 9.06787C276.304 6.54883 281.466 4.88098 286.254 4.43744C291.498 3.95172 301.614 3.91144 308.295 3.46106C313.039 3.1413 318.938 3.19312 324.378 3.95416C328.896 4.58643 333.162 5.72949 339.615 7.45886L340.218 7.62036C345.365 8.99945 350.27 9.0141 354.826 9.48529C359.569 9.97589 364.409 11.1333 369.113 12.1727C373.93 13.2369 378.453 14.6838 383.07 17.6305C387.155 20.2374 391.991 22.3969 396.049 25.1997C403.044 30.0303 413.698 35.4039 418.908 38.7053C423.4 41.5514 428.549 44.2718 433.6 47.246C438.603 50.1922 446.853 57.2518 456.877 68.0962C462.583 74.2693 466.304 78.3784 470.743 83.9523C474.828 89.0806 478.482 93.5696 482.905 99.4106C486.417 104.048 489.085 107.894 492.456 112.511C496.379 117.883 500.136 121.698 502.083 126.751C504.373 132.695 506.518 137.849 507.547 143.427C508.446 148.305 508.58 160.642 508.685 170.304L508.685 170.37C508.771 178.262 508.996 183.605 512.288 192.006C514.492 197.633 516.653 203.708 517.343 209.739C517.911 214.709 518.407 220.868 515.288 225.115C512.18 229.345 507.794 233.799 503.202 237.314C498.946 240.573 491.612 241.538 490.884 245.943C489.992 251.332 490.147 258.368 488.187 263.94C485.241 272.314 482.402 279.07 477.571 286.547C474.466 291.353 470.74 298.89 464.587 305.342C459.929 310.227 449.369 320.836 449.006 315.726C448.693 311.31 449.646 305.796 450.321 300.829C450.975 296.02 451.987 291.18 452.197 285.852L452.258 284.296C452.503 278.095 452.84 269.544 453.177 262.668C453.424 257.62 455.315 253.296 456.032 245.743C456.187 244.117 455.702 243.15 454.71 242.584C453.718 242.018 452.064 242.193 451.036 241.361C447.204 238.259 443.817 234.174 442.477 228.983C441.003 223.272 439.809 217.409 438.067 211.404C436.271 205.219 436.597 198.555 432.503 194.481C426.789 188.796 423.42 183.829 418.218 182.291C412.742 180.673 406.583 179.673 403.117 183.131C400.673 185.57 397.816 188.822 396.267 192.575C393.982 198.111 393.076 203.745 391.455 208.599C389.741 213.733 388.953 219.606 388.112 225.117C387.292 230.497 385.621 236.252 383.538 245.709C382.227 251.655 380.246 256.985 379.458 261.321C378.642 265.802 376.598 270.12 376.11 277.438C375.713 283.386 376.708 289.228 375.948 293.948C375.214 298.51 374.887 303.084 374.317 307.617C373.744 312.179 371.855 317.631 371.459 323C370.972 329.607 371.313 335.764 371.053 340.989C370.639 349.291 369.154 354.722 368.685 359.364C368.19 364.258 365.962 369.632 367.639 375.587C371.138 388.013 371.166 392.819 370.068 398.831C369.013 404.611 369.084 410.781 369.505 416.076C369.992 422.205 368.498 429.562 365.738 434.869C363.449 439.272 359.484 445.405 354.791 450.571C350.714 455.06 351.207 460.488 348.439 475.41C346.619 485.22 342.753 495.463 341.17 500.776C339.615 505.997 337.483 511.14 336.191 517.054C334.551 524.567 335.033 533.432 330.14 540.233C329.153 541.605 327.833 542.015 327.206 541.348C325.906 539.964 324.423 536.127 323.54 531.17C322.639 526.11 321.825 520.626 321.091 515.787C320.19 509.844 319.972 499.999 318.559 492.843C317.418 487.065 317.075 482.46 316.029 477.958C314.969 473.396 315.002 468.527 315.544 463.801C316.124 458.741 321.493 450.098 316.507 447.371C314.141 446.077 310.993 445.538 309.816 442.963C308.107 439.223 307.012 435.653 306.806 433.126C306.319 427.156 307.111 420.06 307.301 412.732C307.788 393.969 307.305 387.473 307.791 382.763C308.278 378.035 307.346 373.14 307.955 366.567C308.768 357.785 308.072 344.191 308.442 338.827C308.768 334.099 309.056 329.23 309.341 322.956C309.581 317.666 311.771 308.15 307.122 300.58C305.329 297.661 302.725 292.171 300.831 294.016C295.847 298.871 293.975 307.335 293.011 316.495C292.438 321.943 291.976 326.501 291.542 331.457C291.135 336.1 290.841 340.664 290.072 351.729C289.666 357.58 288.977 362.099 288.767 367.427C288.52 373.69 288.436 380.843 288.605 388.438C288.853 399.564 290.025 404.118 289.582 413.562C289.176 422.244 289.156 433.271 288.194 440.815C287.54 445.941 287.365 453.42 283.531 457.569C279.85 461.553 274.292 462.567 271.695 466.601C270.231 468.875 268.907 472.319 267.865 476.044C265.803 483.413 261.549 494.306 259.531 500.549C256.35 510.39 252.884 520.01 249.003 535.129C247.21 542.112 244.35 555.16 241.575 550.868C240.52 549.235 240.277 546.554 239.038 542.608C234.466 528.043 230.216 517.432 229.991 510.573C229.744 503.009 229.042 492.877 229.83 485.686C230.41 480.387 233.356 475.223 232.604 470.635C231.693 465.077 229.477 458.894 226.962 454.201C224.513 449.631 221.699 444.828 221.665 438.044C221.584 422.137 221.172 417.248 222.488 411.07C223.876 404.553 224.25 398.846 227.716 389.263L227.738 389.203C230.939 380.354 235.165 368.671 234.069 361.925C232.849 354.417 232.639 347.227 233.506 342.483C234.652 336.207 236.767 329.472 237.669 322.875C238.404 317.5 238.924 311.336 239.136 305.703C239.383 299.116 242.343 289.287 237.079 282.361C236.092 281.063 234.859 280.069 233.978 280.511C232.188 281.409 230.552 283.468 229.494 285.974C227.285 291.207 225.076 297.536 223.208 306.082C221.584 313.507 221.58 320.658 221.011 325.192C220.438 329.754 219.449 334.061 217.986 338.622C216.186 344.233 212.125 352.2 211.377 360.348C210.809 366.533 210.023 373.394 208.847 380.197C207.86 385.904 206.388 391.387 205.499 397.201C204.764 402.004 204.23 410.331 200.023 415.83C196.908 419.901 190.626 422.789 187.773 427.138C184.183 432.613 182.864 438.862 179.848 448.101C174.554 464.326 173.003 468.385 170.229 474.577C168.186 479.137 165.732 483.932 163.448 489.237C159.527 498.342 157.777 505.053 150.622 510.615C149.065 511.826 147.133 512.377 146.8 511.486C145.333 507.569 144.162 503.036 144.277 496.636C144.529 482.662 145.877 476.851 146.075 471.768C146.322 465.419 146.13 457.949 146.236 452.084C146.322 447.356 146.509 442.473 147.137 437.927C147.791 433.199 149.574 422.818 145.08 416.445C141.404 411.231 137.563 405.607 137.008 399.031C136.36 391.333 135.611 378.81 138.745 368.728C143.393 353.772 145.288 347.325 145.668 342.732C146.155 336.842 145.222 329.789 144.848 323.852C144.52 318.643 143.884 314.099 144.115 309.453C144.363 304.486 144.79 296.557 148.531 288.214C150.573 283.66 152.149 279.514 156.209 273.816C159.4 269.337 162.918 265.497 165.512 260.801C167.716 256.81 171.328 251.757 169.822 245.501C169.489 244.117 168.829 242.783 167.937 242.999C165.899 243.492 163.705 244.706 161.731 246.099C157.568 249.038 153.062 255.587 150.066 260.749C147.605 264.992 143.222 269.683 139.367 273.032C135.517 276.376 130.911 280.818 127.041 285.403C123.106 290.065 118.405 296.658 114.539 302.674C108.431 312.179 105.796 317.03 101.65 321.857C96.8134 327.489 90.3008 335.512 82.6215 337.142C76.9081 338.355 70.7223 334.015 66.2893 337.645C62.2142 340.982 58.6032 345.789 54.5366 348.793C44.3464 356.321 32.8603 363.837 29.0795 366.272C25.1562 368.798 21.3833 371.648 16.8321 373.919C12.4215 376.121 0.31139 384.046 1.74397 378.784C2.655 375.438 5.00747 370.922 7.06072 366.655C9.02234 362.579 11.1631 358.481 14.1652 353.636C17.2019 348.734 21.6595 342.515 24.953 337.179C31.073 327.264 34.1086 322.796 37.6779 317.183Z" fill="#01B37F"/>
<path d="M45.0701 302.968C45.8481 303.453 46.626 303.937 47.404 304.421C45.0001 309.074 42.348 313.572 39.5577 317.954C39.4935 318.055 39.4294 318.156 39.3653 318.256C35.2305 324.688 30.7695 330.793 26.7894 337.265C26.6353 337.514 26.4793 337.767 26.3214 338.024C23.0638 343.292 19.5429 348.311 16.2868 353.411C16.0529 353.779 15.8187 354.151 15.591 354.519C13.2993 358.21 11.2073 362.001 9.29049 365.904C9.04847 366.395 8.8081 366.887 8.56906 367.381C6.92383 370.798 5.13496 374.128 3.86959 377.497C3.65789 378.072 3.46528 378.649 3.31125 379.211C3.23397 379.449 3.26691 379.658 3.23637 379.472C3.21878 379.377 3.08912 379.145 2.92497 379.037C2.76976 378.928 2.68866 378.931 2.70693 378.931C2.83254 378.97 3.57385 378.832 4.16591 378.62C5.41888 378.19 6.74554 377.548 8.03537 376.889C10.649 375.551 13.1568 374.03 15.9131 372.584C15.9814 372.549 16.0486 372.515 16.1146 372.482C20.1237 370.493 23.7656 367.745 27.6813 365.139C27.8373 365.036 27.9939 364.932 28.1508 364.83C36.3588 359.43 44.4854 353.846 52.3637 347.998C52.7051 347.744 53.0461 347.489 53.3849 347.234C54.1436 346.661 54.8817 346.02 55.6044 345.341C58.268 342.839 60.7067 339.863 63.6872 337.162C64.1064 336.783 64.5365 336.411 64.9806 336.047C71.4285 331.579 77.2013 336.067 81.3492 335.249C81.6376 335.22 81.918 335.177 82.1919 335.119C88.8448 333.563 94.0977 327.368 99.0423 321.588C99.3651 321.209 99.6888 320.828 100.011 320.45C104.365 315.341 107.756 309.113 111.593 303.168C111.948 302.607 112.306 302.044 112.67 301.473C116.099 296.122 119.705 290.909 123.68 285.886C124.205 285.226 124.739 284.57 125.284 283.919C128.5 280.091 131.978 276.558 135.625 273.205C136.346 272.543 137.077 271.888 137.813 271.243C140.954 268.473 143.908 265.369 146.331 262.05C146.927 261.226 147.486 260.384 147.976 259.536C150.607 255.051 153.45 250.703 157.241 246.783C158.171 245.844 159.169 244.941 160.335 244.122C161.262 243.474 162.229 242.866 163.258 242.315C164.37 241.722 165.568 241.23 166.889 240.852C167.052 240.806 167.218 240.762 167.386 240.722C168.459 240.409 169.755 240.957 170.25 241.446C170.811 241.941 171.07 242.38 171.294 242.777C171.718 243.571 171.925 244.257 172.097 244.954C173.344 249.772 171.613 254.749 169.53 258.433C168.863 259.66 168.162 260.822 167.55 261.926C165.54 265.567 163.004 268.711 160.649 271.762C159.772 272.898 158.914 274.025 158.1 275.163C155.904 278.218 154.089 281.419 152.529 284.882C151.893 286.273 151.277 287.704 150.624 289.153C148.446 293.97 147.23 299.201 146.72 304.564C146.558 306.209 146.461 307.87 146.377 309.565C146.234 312.384 146.438 315.285 146.682 318.261C146.828 320.053 146.986 321.871 147.1 323.71C147.371 327.985 147.87 332.364 148.015 336.852C148.077 338.844 148.073 340.863 147.903 342.917C147.047 350.32 144.696 356.651 142.76 363.27C142.133 365.306 141.498 367.348 140.862 369.386C138.691 376.481 138.429 384.276 138.736 391.959C138.833 394.25 138.993 396.548 139.185 398.848C139.472 402.414 140.934 405.896 142.888 409.195C144.081 411.218 145.45 413.19 146.861 415.19C150.129 419.969 150.375 425.507 150.156 430.488C150.021 433.128 149.651 435.753 149.296 438.226C149.018 440.231 148.833 442.268 148.702 444.319C148.538 446.9 148.462 449.505 148.415 452.124C148.352 455.859 148.397 459.642 148.39 463.441C148.385 466.23 148.362 469.032 148.252 471.853C147.906 477.529 147.062 482.612 146.785 487.942C146.602 490.842 146.473 493.749 146.4 496.674C146.351 498.591 146.42 500.492 146.646 502.37C146.808 503.722 147.05 505.057 147.375 506.376C147.738 507.852 148.206 509.306 148.754 510.755C148.643 510.38 148.173 509.974 147.932 509.907C147.68 509.816 147.614 509.841 147.61 509.836C147.615 509.839 147.82 509.8 148.019 509.721C148.437 509.562 148.922 509.279 149.332 508.955C153.212 505.99 155.77 501.891 157.756 497.196C158.991 494.344 160.108 491.336 161.373 488.344C162.19 486.402 163.049 484.487 163.928 482.594C165.33 479.569 166.774 476.595 168.095 473.622C170.495 468.331 172.403 462.93 174.261 457.354C175.367 454.038 176.445 450.7 177.523 447.342C178.686 443.737 179.71 440.085 180.909 436.362C182.062 432.813 183.452 429.116 185.657 425.751C186.914 423.843 188.463 422.426 189.968 421.163C192.977 418.661 196.152 416.644 197.974 414.262C199.349 412.453 200.309 410.188 200.993 407.775C201.973 404.355 202.352 400.731 202.904 396.804C203.186 394.939 203.526 393.098 203.888 391.279C204.672 387.35 205.526 383.518 206.132 379.728C206.533 377.22 206.885 374.7 207.209 372.174C207.723 368.162 208.138 364.129 208.491 360.083C208.817 356.41 209.722 352.927 210.81 349.609C212.166 345.44 213.941 341.451 215.17 337.718C215.248 337.475 215.325 337.232 215.4 336.989C216.648 332.992 217.565 328.945 218.08 324.824C218.301 323.04 218.422 321.086 218.568 319.135C218.891 314.656 219.329 310.038 220.341 305.455C220.873 303.042 221.466 300.647 222.135 298.258C222.784 295.943 223.569 293.656 224.403 291.396C224.855 290.17 225.367 288.97 225.841 287.754C226.212 286.804 226.597 285.856 226.993 284.918C228.136 282.359 229.608 279.8 232.76 278.082C233.866 277.508 235.121 277.667 235.809 277.925C236.539 278.186 237.007 278.512 237.414 278.821C238.21 279.448 238.747 280.072 239.244 280.716C241.692 283.889 242.69 287.872 242.866 291.478C243.149 296.65 242.072 301.536 241.876 305.806C241.843 306.734 241.801 307.661 241.753 308.587C241.491 313.487 241.061 318.365 240.401 323.249C240.158 325.028 239.838 326.774 239.481 328.493C238.444 333.484 237.077 338.272 236.21 342.977C235.988 344.191 235.86 345.486 235.79 346.797C235.556 351.608 236.001 356.596 236.789 361.483C237.462 366.514 236.366 370.746 235.34 374.916C233.944 380.197 232.122 385.238 230.329 390.208C229.649 392.091 229.036 393.977 228.495 395.884C227.016 400.922 226.35 406.116 225.202 411.648C224.524 414.729 224.352 417.875 224.318 421.213C224.279 426.727 224.291 432.406 224.302 438.031C224.302 438.04 224.302 438.05 224.302 438.059C224.253 443.194 226.431 447.853 229.226 452.864C229.243 452.896 229.26 452.928 229.277 452.96C231.777 457.688 233.585 462.629 234.747 467.836C234.918 468.62 235.07 469.411 235.201 470.21C235.917 476.966 232.75 481.501 232.404 485.968C232.169 488.055 232.076 490.229 232.043 492.41C231.962 498.348 232.318 504.374 232.51 510.491C232.695 514.718 234.156 519.377 235.549 523.918C236.389 526.599 237.229 529.301 238.123 531.999C239.211 535.278 240.32 538.562 241.392 541.869C242.345 544.633 242.908 548.216 243.714 549.485C243.774 549.601 243.877 549.59 243.505 549.357C243.329 549.253 242.943 549.13 242.583 549.163C242.223 549.189 241.982 549.317 241.889 549.374C241.679 549.521 241.815 549.437 241.91 549.282C242.023 549.118 242.155 548.889 242.282 548.639C242.542 548.126 242.792 547.519 243.026 546.89C243.49 545.633 243.9 544.279 244.284 542.909C245.053 540.162 245.71 537.344 246.428 534.468C247.884 528.665 249.488 522.896 251.236 517.178C253.03 511.284 254.987 505.465 256.834 499.677C257.562 497.402 258.341 495.191 259.116 492.987C260.228 489.834 261.347 486.703 262.425 483.579C263.382 480.798 264.31 478.018 265.085 475.267C265.662 473.215 266.326 471.178 267.172 469.144C267.746 467.779 268.387 466.415 269.266 465.037C272.878 459.931 277.818 459.009 280.443 456.498C280.783 456.206 281.098 455.905 281.388 455.589C284.277 452.411 284.606 446.393 285.282 440.443C285.573 438.119 285.75 435.708 285.887 433.294C286.249 426.757 286.275 420.131 286.544 413.42C286.607 411.879 286.631 410.357 286.611 408.831C286.521 402.356 285.558 395.453 285.439 388.508C285.438 388.454 285.436 388.4 285.435 388.346C285.294 383.163 285.228 377.976 285.333 372.786C285.371 370.957 285.423 369.127 285.493 367.297C285.68 362.274 286.341 357.456 286.696 352.77C286.729 352.346 286.76 351.926 286.79 351.501C287.099 347.032 287.398 342.594 287.717 338.115C287.883 335.809 288.066 333.493 288.283 331.172C288.751 326.153 289.316 321.151 289.882 316.166C289.953 315.543 290.028 314.921 290.108 314.298C290.565 310.768 291.215 307.21 292.257 303.651C293.477 299.556 295.297 295.274 298.762 291.893C299.425 291.086 301.472 290.358 302.749 290.834C303.988 291.207 304.553 291.765 305.039 292.198C305.966 293.096 306.495 293.894 307.019 294.676C308.031 296.225 308.834 297.756 309.617 299.048C309.758 299.279 309.894 299.511 310.024 299.744C313.02 305.112 313.217 311.186 312.804 316.516C312.636 318.819 312.321 321.102 312.212 323.086C311.956 328.396 311.642 333.714 311.264 339.021C311.17 340.405 311.155 341.921 311.148 343.437C311.137 348.679 311.252 354.025 311.136 359.405C311.081 361.854 310.989 364.318 310.761 366.827C310.194 371.907 311.098 376.985 310.608 383.053C310.43 384.82 310.408 386.732 310.394 388.681C310.391 395.281 310.423 402.033 310.308 408.702C310.287 410.079 310.287 411.422 310.289 412.81C310.292 414.864 310.262 416.904 310.182 418.919C310.073 421.651 309.946 424.348 309.885 426.985C309.84 428.99 309.844 430.967 309.984 432.867C310.214 435.522 311.344 438.754 312.653 441.666C312.729 441.832 312.815 441.961 312.983 442.126C313.592 442.813 315.578 443.397 317.998 444.643C319.88 445.546 321.42 447.964 321.606 449.862C321.88 451.78 321.599 453.312 321.304 454.715C320.467 458.408 318.955 461.722 318.646 464.157C318.481 465.621 318.368 467.082 318.323 468.531C318.229 471.52 318.402 474.47 319.015 477.264C320.005 481.814 320.33 486.137 321.039 490.303C321.148 490.966 321.263 491.626 321.383 492.285C322.205 496.856 322.462 501.299 322.832 505.69C323.109 508.987 323.337 512.294 323.792 515.378C323.83 515.63 323.869 515.885 323.907 516.138C324.081 517.285 324.358 518.415 324.537 519.559C325.12 523.281 325.711 526.991 326.377 530.664C326.937 533.861 328.141 537.895 329.336 539.347C328.976 538.934 328.318 538.721 327.995 538.736C327.652 538.736 327.535 538.807 327.49 538.822C327.411 538.868 327.61 538.735 327.753 538.515C330.185 535.112 331.109 530.663 331.738 525.91C332.154 522.885 332.444 519.705 333.149 516.389C334.355 510.71 336.443 505.448 337.979 500.398C338.032 500.223 338.085 500.047 338.137 499.872C340.695 491.705 343.438 484.05 345.03 476.13C345.117 475.695 345.202 475.258 345.282 474.824C346.368 469.169 346.972 463.644 348.131 457.602C348.716 454.671 349.899 451.034 352.388 448.388C354.589 445.946 356.62 443.293 358.491 440.533C360.065 438.204 361.538 435.784 362.802 433.342C363.887 431.231 364.702 428.865 365.276 426.448C366.061 423.115 366.414 419.626 366.151 416.343C365.82 412.276 365.711 408.155 365.997 403.987C366.131 402.071 366.299 400.139 366.574 398.193C367.059 394.817 366.948 391.861 366.521 388.599C366.025 384.733 365.008 380.683 363.896 376.641C363.298 374.507 363.091 372.284 363.166 370.19C363.319 365.825 364.56 362.027 364.869 358.979C365.124 356.575 365.54 354.394 365.893 352.268C366.559 348.379 367.045 344.622 367.225 340.798C367.276 339.749 367.301 338.671 367.313 337.583C367.358 333.202 367.192 328.606 367.435 323.925C367.455 323.52 367.478 323.115 367.504 322.708C367.879 317.042 369.494 311.98 370.148 307.604C370.172 307.436 370.196 307.266 370.216 307.102C370.775 302.698 371.146 298.064 371.937 293.302C372.016 292.833 372.074 292.336 372.115 291.817C372.43 287.635 371.742 282.543 372.124 277.172C372.153 276.762 372.186 276.361 372.225 275.954C372.636 270.405 374.73 264.814 375.591 260.617C375.957 258.659 376.449 256.871 376.941 255.136C377.964 251.573 379.007 248.221 379.749 244.874C380.165 243.008 380.591 241.163 381.028 239.311C382.198 234.269 383.554 229.266 384.296 224.535C384.344 224.222 384.392 223.907 384.44 223.591C385.015 219.817 385.604 215.931 386.56 211.984C386.93 210.464 387.359 208.935 387.882 207.406C388.986 204.192 389.795 200.533 390.93 196.807C391.495 194.946 392.142 193.061 392.93 191.197C394.796 186.852 397.71 183.552 400.646 180.654C401.132 180.174 401.666 179.742 402.232 179.368C408.745 175.656 414.373 177.865 419.162 179.095C420.593 179.525 421.936 180.176 423.124 180.93C428.352 184.471 431.182 188.721 434.8 192.172C435.496 192.864 436.111 193.633 436.63 194.435C440.009 200.049 439.769 205.41 441.026 209.74C441.091 209.992 441.153 210.242 441.214 210.491C441.469 211.5 441.663 212.521 441.913 213.523C442.206 214.697 442.488 215.869 442.775 217.034C443.707 220.81 444.542 224.555 445.485 228.207C445.858 229.656 446.439 231.054 447.201 232.38C448.614 234.845 450.649 237.042 453.001 238.935C452.762 238.767 452.907 238.906 453.449 238.996C453.989 239.137 454.796 239.101 456.262 239.865C457.301 240.413 458.418 241.639 458.823 242.886C459.254 244.126 459.231 245.167 459.157 246.039C458.988 247.859 458.732 249.673 458.406 251.455C457.673 255.587 456.447 259.413 456.286 262.82C456.239 263.75 456.194 264.68 456.151 265.611C455.926 270.484 455.747 275.368 455.584 280.253C455.52 282.161 455.467 284.073 455.418 285.979C455.287 291.335 454.345 296.476 453.73 301.293C453.669 301.77 453.606 302.246 453.543 302.718C452.947 307.195 452.247 311.629 452.51 315.477C452.481 315.482 452.613 315.212 451.984 314.422C451.66 314.041 451.126 313.738 450.724 313.641C450.336 313.54 450.094 313.563 449.987 313.573C449.765 313.604 449.883 313.597 450.03 313.526C450.182 313.459 450.398 313.345 450.63 313.207C451.57 312.646 452.663 311.791 453.702 310.909C456.538 308.485 459.289 305.678 461.965 302.843C464.616 300.026 466.924 296.822 469.085 293.417C470.888 290.6 472.515 287.652 474.494 284.559C475.81 282.527 477.034 280.456 478.163 278.327C480.522 273.895 482.446 269.208 484.198 264.351C484.392 263.816 484.583 263.28 484.774 262.739C486.174 258.753 486.373 253.84 486.895 248.688C487.008 247.603 487.14 246.495 487.326 245.354C488.109 241.147 491.397 239.429 493.324 238.358C495.441 237.258 497.362 236.52 498.981 235.674C499.756 235.273 500.452 234.858 501 234.438C504.738 231.567 508.222 228.199 511.173 224.548C511.589 224.03 511.992 223.507 512.381 222.979C514.48 220.227 514.388 215.198 513.767 210.148C513.644 209.068 513.469 207.981 513.251 206.892C512.346 202.381 510.735 197.866 508.96 193.31C507.488 189.557 506.307 185.525 505.75 181.403C505.224 177.627 505.179 173.946 505.139 170.409C505.117 168.198 505.094 165.989 505.061 163.785C504.968 158.185 504.871 152.527 504.429 147.144C504.333 146.062 504.215 144.976 504.05 144.072C503.37 140.355 502.076 136.643 500.623 132.834C500.019 131.25 499.39 129.65 498.766 128.029C497.405 124.419 494.501 121.019 491.57 117.235C490.905 116.376 490.241 115.504 489.586 114.607C486.365 110.2 483.287 105.801 480.066 101.56C479.829 101.247 479.594 100.938 479.357 100.627C475.662 95.7671 471.816 91.0091 467.959 86.1705C465.483 83.0574 462.924 80.0497 460.259 77.076C458.295 74.8814 456.292 72.6918 454.278 70.4985C452.575 68.6431 450.851 66.8219 449.092 65.0381C443.654 59.5873 437.856 54.0357 431.812 50.2818C431.178 49.9084 430.54 49.5376 429.898 49.1682C425.708 46.7498 421.377 44.4043 417.094 41.6784C417.077 41.6679 417.061 41.6574 417.044 41.6469C413.142 39.1963 408.786 36.7949 404.545 34.3253C401.078 32.3113 397.61 30.2498 394.192 27.8892C393.622 27.4929 393.03 27.1082 392.421 26.7323C389.016 24.6226 385.153 22.8256 381.307 20.3925C380.882 20.1216 380.452 19.861 380.017 19.6107C376.498 17.5693 372.604 16.2912 368.405 15.3782C367.598 15.2003 366.796 15.0208 365.998 14.8433C362.081 13.9723 358.246 13.145 354.487 12.756C353.345 12.6381 352.166 12.5489 350.959 12.4578C347.272 12.1862 343.3 11.847 339.372 10.7747C336.021 9.86963 332.689 8.94183 329.419 8.19531C327.576 7.77606 325.753 7.42419 323.927 7.17291C320.689 6.72839 317.359 6.54797 314.033 6.55103C312.19 6.5542 310.344 6.62292 308.517 6.75848C305.455 6.98077 302.45 7.10034 299.455 7.20129C295.096 7.3551 290.67 7.42834 286.564 7.77856C285.966 7.83435 285.365 7.91144 284.762 8.00763C280.422 8.70728 276.028 10.3628 271.67 12.2137C271.329 12.3588 270.987 12.4981 270.646 12.632C265.87 14.4949 261.104 15.3572 256.801 16.5497C255.982 16.7757 255.164 17.0146 254.348 17.2648C250.397 18.4769 246.49 19.9561 242.616 21.586C239.902 22.7283 237.228 23.8968 234.627 25.1547C232.57 26.1495 230.554 27.1916 228.624 28.3168C225.499 30.1403 222.483 32.4316 219.407 34.8177C217.991 35.9158 216.558 37.0339 215.078 38.1357C211.987 40.435 209.017 42.9333 206.114 45.5452C203.589 47.8147 201.125 50.1761 198.614 52.5707C197.398 53.7264 196.259 55.2994 195.195 56.9836C193.068 60.3665 191.15 64.184 188.957 67.9529C188.862 68.1161 188.768 68.2784 188.674 68.4396C185.762 73.4454 182.566 78.3674 179.144 83.0639C178.951 83.3302 178.766 83.5885 178.577 83.8564C175.533 88.0908 173.214 92.5916 170.608 97.5117C170.401 97.8875 170.197 98.2654 169.996 98.6455C168.122 102.176 166.407 105.875 164.61 109.586C164.172 110.491 163.74 111.405 163.311 112.324C161.101 116.983 159.172 121.729 156.352 126.529C156.348 126.536 156.344 126.543 156.339 126.55C153.242 131.624 150.204 136.776 146.599 141.763C146.582 141.787 146.565 141.81 146.548 141.833C143.457 146.081 140.204 150.283 136.736 154.299C136.701 154.34 136.666 154.38 136.631 154.421C133.597 157.936 131.332 161.968 129.244 166.337C129.121 166.591 129.001 166.843 128.879 167.1C127.782 169.41 126.684 171.708 125.603 174.004C124.096 177.205 122.621 180.406 121.191 183.628C121.158 183.701 121.125 183.774 121.093 183.848C118.936 188.66 116.891 193.675 113.877 198.512C113.517 199.085 113.145 199.648 112.762 200.2C110.063 204.125 106.772 207.435 103.92 210.625C103.628 210.953 103.333 211.277 103.036 211.596C99.535 215.318 95.9185 218.464 92.5214 221.842C91.5632 222.785 90.6174 223.733 89.6769 224.695C86.5375 227.913 83.6314 231.396 81.0527 235.056C80.2771 236.16 79.534 237.281 78.8381 238.415C76.4412 242.278 74.508 246.962 71.1142 251.227C71.0557 251.3 70.9968 251.373 70.9373 251.446C68.3113 254.653 66.7499 259.232 64.5164 263.913C63.8077 265.378 63.0919 266.847 62.3538 268.317C60.2985 272.436 57.8315 276.484 55.0641 280.245C54.586 280.877 54.1506 281.697 53.7744 282.571C51.8489 287.217 51.0492 292.726 49.7098 298.1C49.1759 300.155 48.6043 302.229 47.4519 304.322C46.642 303.904 45.8321 303.486 45.0221 303.068C45.7072 301.444 46.0242 299.375 46.3781 297.393C47.3206 292.09 47.7608 286.622 49.6215 280.97C50.008 279.873 50.4638 278.756 51.1537 277.633C53.4549 273.853 55.3045 269.888 57.1722 265.82C57.8417 264.369 58.4986 262.9 59.1577 261.422C61.0803 257.172 62.5039 252.092 66.1327 247.538C66.18 247.479 66.2271 247.421 66.2738 247.362C68.9917 243.999 70.8679 239.596 73.5723 235.179C74.3479 233.919 75.1615 232.697 76.0043 231.501C78.8045 227.541 81.9132 223.855 85.2935 220.403C86.2637 219.414 87.2383 218.44 88.2215 217.472C91.7029 214.016 95.3647 210.74 98.4879 207.381C98.7537 207.093 99.0157 206.802 99.2726 206.511C102.32 203.085 105.287 200.044 107.619 196.64C107.951 196.161 108.271 195.676 108.579 195.185C111.19 191.011 113.202 186.17 115.371 181.309C115.404 181.235 115.437 181.161 115.47 181.087C116.925 177.81 118.433 174.561 119.969 171.337C121.07 169.023 122.186 166.72 123.288 164.429C123.416 164.162 123.544 163.899 123.674 163.634C125.871 159.087 128.621 154.462 132.136 150.52C132.176 150.475 132.216 150.429 132.256 150.384C135.655 146.559 138.835 142.556 141.928 138.419C141.945 138.396 141.963 138.373 141.98 138.35C145.4 133.751 148.509 128.707 151.638 123.666C151.643 123.659 151.647 123.651 151.652 123.644C154.117 119.545 156.18 114.709 158.392 110.025C158.828 109.092 159.269 108.158 159.719 107.224C161.491 103.558 163.21 99.8127 165.162 96.0934C165.372 95.6934 165.584 95.2938 165.799 94.8947C168.187 90.3041 170.675 85.1472 173.83 80.5779C174.027 80.2861 174.22 80.0048 174.421 79.7149C177.639 75.0883 180.533 70.3041 183.277 65.3611C183.365 65.2021 183.454 65.042 183.543 64.8808C185.56 61.2586 187.378 57.4141 189.742 53.5704C190.945 51.6481 192.275 49.6976 194.135 47.8918C196.61 45.5043 199.129 43.0657 201.737 40.7014C204.738 37.9777 207.86 35.3391 211.148 32.8749C212.545 31.8282 213.939 30.7326 215.354 29.6223C218.432 27.2115 221.597 24.6964 225.187 22.527C227.308 21.2491 229.466 20.101 231.642 19.0317C234.393 17.6812 237.171 16.4476 239.936 15.2666C243.958 13.5489 248.075 11.9677 252.324 10.6639C253.201 10.3949 254.084 10.1379 254.973 9.89478C259.695 8.61475 264.198 7.80066 268.168 6.26093C268.452 6.15131 268.734 6.03851 269.012 5.92206C273.619 4.01093 278.419 2.23163 283.711 1.37653C284.447 1.26044 285.192 1.16559 285.945 1.09631C290.54 0.713562 294.869 0.654907 299.24 0.505554C302.213 0.410828 305.185 0.3349 308.073 0.163635C310.067 0.0425415 312.054 -0.00640869 314.041 0.000732422C317.627 0.0175781 321.217 0.228088 324.828 0.735474C326.873 1.02393 328.89 1.41992 330.856 1.86719C334.348 2.66541 337.709 3.58313 341.063 4.46606C344.303 5.3313 347.759 5.63055 351.454 5.89935C352.662 5.99066 353.898 6.08356 355.164 6.2146C359.425 6.66058 363.481 7.5556 367.426 8.43311C368.229 8.61224 369.028 8.79144 369.821 8.9671C374.347 9.9491 379.065 11.4664 383.289 13.9306C383.811 14.2315 384.325 14.5444 384.832 14.8685C388.164 16.9979 392.024 18.8181 395.853 21.1759C396.539 21.5998 397.225 22.0421 397.907 22.5103C401.027 24.6432 404.43 26.5955 407.854 28.5196C412.083 30.9088 416.388 33.0693 420.772 35.7637C420.788 35.7734 420.803 35.783 420.818 35.7926C424.819 38.2938 429.122 40.5879 433.414 43.062C434.071 43.4406 434.729 43.823 435.387 44.2103C442.763 48.8296 448.391 54.4045 454.108 60.0899C455.927 61.9337 457.712 63.7986 459.476 65.694C461.511 67.8823 463.551 70.0801 465.564 72.3286C468.293 75.3727 470.971 78.5184 473.528 81.7341C477.354 86.533 481.258 91.36 485.022 96.3106C485.263 96.627 485.502 96.9421 485.744 97.261C489.06 101.631 492.17 106.093 495.326 110.415C495.928 111.24 496.548 112.057 497.188 112.882C499.942 116.502 503.371 120.269 505.4 125.473C506.013 127.066 506.644 128.67 507.266 130.302C508.758 134.218 510.228 138.349 511.043 142.783C511.284 144.116 511.404 145.314 511.514 146.52C511.991 152.371 512.05 158.009 512.148 163.681C512.181 165.903 512.206 168.121 512.232 170.332C512.273 173.839 512.339 177.214 512.795 180.418C513.279 183.915 514.272 187.299 515.616 190.702C517.454 195.382 519.238 200.244 520.302 205.474C520.557 206.738 520.768 208.025 520.918 209.331C521.419 214.593 522.42 221.122 518.195 227.25C517.741 227.869 517.275 228.473 516.8 229.066C513.429 233.241 509.637 236.926 505.404 240.19C504.362 240.987 503.317 241.588 502.313 242.109C500.235 243.18 498.258 243.94 496.68 244.764C495.901 245.167 495.234 245.595 494.863 245.941C494.478 246.308 494.472 246.409 494.441 246.531C494.287 247.456 494.167 248.433 494.063 249.435C493.536 254.261 493.486 259.562 491.601 265.14C491.406 265.696 491.21 266.25 491.012 266.803C489.217 271.823 487.186 276.895 484.623 281.742C483.398 284.068 482.068 286.334 480.649 288.536C478.915 291.253 477.2 294.355 475.283 297.356C472.967 301.006 470.336 304.603 467.208 307.842C464.386 310.751 461.512 313.614 458.267 316.34C457.045 317.349 455.809 318.34 454.206 319.292C453.34 319.751 452.622 320.29 450.756 320.571C449.916 320.703 447.956 320.532 446.731 319.097C445.607 317.73 445.594 316.745 445.502 315.975C445.219 310.774 446.08 306.216 446.709 301.753C446.777 301.288 446.846 300.825 446.913 300.365C447.674 295.214 448.736 290.447 448.976 285.724C449.078 283.822 449.175 281.91 449.263 280.001C449.489 275.112 449.711 270.221 449.937 265.324C449.98 264.388 450.023 263.452 450.067 262.516C450.314 257.913 451.587 254.063 452.222 250.325C452.519 248.699 452.75 247.081 452.908 245.446C452.946 245.111 452.893 244.905 452.917 244.993C452.926 245.085 453.182 245.345 453.157 245.303C453.475 245.433 452.954 245.251 452.226 245.129C451.501 244.966 450.335 244.783 449.072 243.788C446.274 241.512 443.706 238.771 441.811 235.472C440.794 233.701 439.988 231.773 439.47 229.76C438.493 225.969 437.656 222.209 436.745 218.522C436.464 217.384 436.162 216.256 435.845 215.137C435.574 214.183 435.229 213.253 434.919 212.318C434.819 212.011 434.728 211.705 434.649 211.398C433.301 206.142 433.159 200.991 431.166 197.98C430.879 197.538 430.561 197.145 430.205 196.791C426.388 193.075 423.071 188.73 419.606 186.539C418.834 186.061 418.067 185.712 417.273 185.488C413.014 184.215 408.127 183.627 406.115 185.16C405.923 185.294 405.75 185.441 405.589 185.608C403.013 188.225 400.768 191.042 399.605 193.952C398.974 195.526 398.44 197.171 397.957 198.875C396.976 202.289 396.266 205.936 395.028 209.793C394.617 211.062 394.267 212.383 393.958 213.734C393.156 217.245 392.642 220.947 392.073 224.744C392.025 225.061 391.977 225.38 391.929 225.699C391.074 231.143 389.701 236.1 388.562 241.081C388.135 242.907 387.724 244.716 387.326 246.543C386.516 250.276 385.425 253.85 384.473 257.256C384.015 258.906 383.592 260.523 383.324 262.024C382.108 267.849 380.489 271.959 380.172 276.682C380.142 277.023 380.117 277.359 380.096 277.704C379.782 282.118 380.51 286.815 380.201 292.415C380.151 293.123 380.076 293.849 379.96 294.594C379.289 298.897 379.002 303.43 378.418 308.132C378.39 308.356 378.359 308.584 378.327 308.803C377.439 314.353 375.775 318.906 375.415 323.292C375.383 323.661 375.354 324.03 375.328 324.401C375.019 328.69 375.041 333.081 374.986 337.683C374.97 338.829 374.941 339.996 374.881 341.18C374.678 345.349 374.124 349.542 373.438 353.536C373.075 355.708 372.691 357.818 372.5 359.75C372.012 364.048 370.95 367.383 370.901 370.433C370.86 371.89 371.01 373.24 371.382 374.532C372.571 378.74 373.71 382.997 374.311 387.619C374.846 391.481 374.449 395.791 373.562 399.469C373.185 401.098 372.92 402.781 372.785 404.489C372.494 408.203 372.567 412.004 372.859 415.81C373.166 420.002 372.712 424.057 371.764 428.007C371.063 430.869 370.089 433.681 368.675 436.396C367.232 439.138 365.632 441.718 363.913 444.229C361.872 447.2 359.657 450.056 357.195 452.754C355.728 454.315 355.001 456.303 354.444 458.938C353.4 464.261 352.709 470.254 351.596 475.995C351.508 476.467 351.415 476.939 351.319 477.408C349.599 485.857 346.656 493.959 344.204 501.679C344.147 501.869 344.089 502.058 344.031 502.247C342.337 507.679 340.341 512.652 339.234 517.719C338.61 520.525 338.291 523.592 337.831 526.766C337.116 531.722 335.946 537.285 332.527 541.95C331.941 542.738 331.227 543.512 330.021 544.106C329.476 544.36 328.813 544.593 327.912 544.587C327.034 544.599 325.815 544.174 325.077 543.349C321.831 538.969 321.55 535.553 320.703 531.675C320.046 527.912 319.473 524.158 318.918 520.415C318.748 519.265 318.678 518.102 318.505 516.956C318.467 516.703 318.428 516.449 318.39 516.197C317.885 512.735 317.671 509.432 317.392 506.137C317.028 501.784 316.58 497.45 315.734 493.401C315.587 492.704 315.449 492.007 315.319 491.31C314.486 486.926 314.002 482.576 313.043 478.652C312.208 475.214 311.965 471.729 312.071 468.334C312.123 466.687 312.254 465.057 312.442 463.445C313.108 459.169 314.629 456.292 315.237 453.374C315.47 452.35 315.56 451.369 315.465 450.816C315.421 450.538 315.355 450.405 315.309 450.338C315.261 450.271 315.209 450.208 315.015 450.099C313.673 449.282 311.241 448.922 308.66 446.613C307.991 445.975 307.385 445.152 306.979 444.26C305.481 440.904 304.1 437.6 303.628 433.385C303.434 431.155 303.414 428.975 303.461 426.839C303.526 424.032 303.728 421.291 303.906 418.585C304.039 416.59 304.206 414.616 304.313 412.655C304.386 411.279 304.449 409.948 304.484 408.582C304.666 401.947 304.696 395.346 304.715 388.642C304.736 386.642 304.754 384.623 304.973 382.472C305.421 377.756 304.536 372.009 305.149 366.308C305.36 364.019 305.453 361.654 305.505 359.284C305.618 354.057 305.502 348.78 305.503 343.42C305.51 341.849 305.514 340.311 305.62 338.632C305.975 333.367 306.248 328.104 306.47 322.826C306.595 320.366 306.891 318.237 307.034 316.093C307.405 311.169 307.073 306.372 304.919 302.606C304.825 302.44 304.728 302.276 304.627 302.112C303.684 300.569 302.925 299.151 302.105 297.922C301.711 297.325 301.267 296.751 300.99 296.5C300.877 296.374 300.753 296.395 301.194 296.544C301.412 296.612 301.844 296.643 302.217 296.524C302.594 296.408 302.805 296.228 302.899 296.14C300.584 298.409 299.068 301.756 298.059 305.328C297.187 308.42 296.703 311.715 296.325 315.049C296.258 315.638 296.197 316.23 296.14 316.824C295.657 321.809 295.204 326.776 294.8 331.743C294.615 334.015 294.452 336.295 294.287 338.586C293.97 343.038 293.668 347.486 293.355 351.957C293.324 352.403 293.291 352.843 293.256 353.285C292.873 358.205 292.22 362.945 292.041 367.556C291.968 369.345 291.91 371.138 291.867 372.931C291.746 378.019 291.686 383.114 291.769 388.208C291.77 388.261 291.77 388.314 291.771 388.368C291.807 395.049 292.699 401.649 292.746 408.783C292.751 410.427 292.707 412.065 292.621 413.704C292.282 420.255 292.167 426.91 291.771 433.634C291.62 436.127 291.431 438.64 291.106 441.186C290.28 446.714 290.716 453.537 285.674 459.549C285.214 460.045 284.729 460.505 284.232 460.929C280.18 464.298 275.6 465.644 274.124 468.164C273.526 469.092 272.982 470.211 272.498 471.368C271.776 473.101 271.17 474.947 270.645 476.822C269.812 479.783 268.86 482.628 267.885 485.462C266.789 488.641 265.638 491.783 264.508 494.911C263.722 497.092 262.934 499.279 262.228 501.42C260.307 507.266 258.31 513.016 256.484 518.808C254.706 524.428 253.073 530.082 251.577 535.79C250.848 538.584 250.146 541.461 249.305 544.346C248.881 545.792 248.429 547.242 247.864 548.72C247.576 549.465 247.266 550.212 246.855 551.002C246.372 551.802 246.16 552.6 244.606 553.716C243.927 554.267 242.031 554.504 241.063 553.845C240.074 553.26 239.777 552.742 239.436 552.251C237.459 548.415 237.632 546.03 236.684 543.347C235.687 540.061 234.639 536.788 233.553 533.515C232.66 530.82 231.702 528.144 230.826 525.414C229.386 520.735 227.78 516.11 227.473 510.656C227.254 504.648 226.857 498.548 226.907 492.349C226.93 490.062 227.009 487.753 227.255 485.404C227.915 479.65 230.633 474.728 230.008 471.061C229.893 470.36 229.757 469.658 229.604 468.957C228.57 464.295 226.877 459.648 224.647 455.442C224.63 455.411 224.613 455.379 224.596 455.348C221.879 450.501 218.948 444.482 219.028 438.093C219.028 438.081 219.028 438.069 219.028 438.058C219.005 432.447 218.749 426.868 218.781 421.153C218.809 417.717 218.993 414.049 219.773 410.492C220.835 405.388 221.559 399.774 223.144 394.367C223.724 392.322 224.381 390.31 225.103 388.318C226.9 383.361 228.679 378.445 229.99 373.507C230.984 369.686 231.824 365.595 231.349 362.367C230.523 357.163 230.044 351.917 230.303 346.507C230.382 345.023 230.524 343.525 230.801 341.989C231.737 336.911 233.097 332.117 234.079 327.37C234.418 325.738 234.716 324.114 234.937 322.502C235.577 317.807 236.008 313.047 236.27 308.294C236.318 307.396 236.361 306.497 236.395 305.601C236.682 300.476 237.676 296.044 237.425 291.773C237.275 288.811 236.525 286.105 234.914 284.006C234.63 283.629 234.303 283.286 234.084 283.118C233.984 283.036 233.901 283.011 234.023 283.059C234.086 283.08 234.215 283.12 234.433 283.122C234.646 283.126 234.954 283.065 235.197 282.94C234.054 283.493 232.738 285.224 231.996 287.03C231.618 287.923 231.251 288.825 230.899 289.728C230.449 290.883 230.081 292.064 229.696 293.241C228.985 295.412 228.372 297.62 227.763 299.824C227.135 302.1 226.577 304.392 226.074 306.709C225.173 310.851 224.765 315.143 224.453 319.564C224.309 321.504 224.196 323.468 223.942 325.56C223.388 330.039 222.384 334.475 221.049 338.746C220.968 339.006 220.886 339.265 220.803 339.525C219.373 343.824 217.66 347.577 216.38 351.457C215.356 354.515 214.556 357.584 214.262 360.613C213.866 364.718 213.399 368.827 212.822 372.929C212.459 375.513 212.039 378.093 211.562 380.667C210.822 384.662 209.852 388.519 209.064 392.331C208.698 394.095 208.365 395.848 208.094 397.598C207.562 401.231 207.148 405.267 205.999 409.212C205.182 412.018 204.01 414.87 202.072 417.398C199.254 420.909 195.905 422.814 193.216 425.082C191.876 426.185 190.678 427.33 189.889 428.526C188.048 431.299 186.787 434.518 185.657 437.923C184.482 441.478 183.401 445.184 182.174 448.86C181.06 452.216 179.945 455.554 178.803 458.89C176.9 464.462 174.86 470.128 172.363 475.533C170.974 478.602 169.503 481.577 168.094 484.549C167.211 486.409 166.345 488.264 165.523 490.131C164.249 493.009 163.09 495.963 161.757 498.96C159.657 503.851 156.451 508.905 151.912 512.274C151.184 512.831 150.417 513.29 149.486 513.642C149.012 513.813 148.516 513.971 147.798 514.011C147.436 514.021 147.004 514.02 146.414 513.798C145.836 513.606 145.079 512.936 144.845 512.218C144.261 510.648 143.742 509.025 143.336 507.371C142.971 505.892 142.694 504.392 142.502 502.883C142.235 500.788 142.131 498.688 142.155 496.598C142.187 493.618 142.275 490.646 142.458 487.672C142.73 482.271 143.603 476.728 143.897 471.683C144.001 468.957 144.023 466.2 144.027 463.435C144.034 459.665 143.991 455.879 144.058 452.045C144.107 449.392 144.185 446.724 144.356 444.043C144.491 441.912 144.684 439.773 144.979 437.629C145.342 435.096 145.677 432.68 145.802 430.258C146.041 425.703 145.607 420.985 143.3 417.7C141.88 415.685 140.441 413.618 139.136 411.408C137.01 407.812 135.206 403.703 134.832 399.215C134.632 396.879 134.462 394.517 134.358 392.149C134.038 384.194 134.224 376.039 136.627 368.07C137.258 366.033 137.887 363.994 138.508 361.965C140.42 355.459 142.751 348.793 143.433 342.547C143.58 340.742 143.585 338.878 143.523 336.998C143.381 332.751 142.885 328.435 142.595 323.994C142.483 322.224 142.326 320.442 142.175 318.632C141.928 315.628 141.696 312.524 141.853 309.34C141.936 307.634 142.036 305.879 142.204 304.128C142.738 298.407 144.037 292.63 146.438 287.276C147.065 285.871 147.678 284.431 148.338 282.976C149.956 279.343 151.973 275.738 154.317 272.468C155.182 271.25 156.076 270.072 156.966 268.918C159.363 265.817 161.721 262.862 163.474 259.675C164.153 258.45 164.832 257.326 165.437 256.209C167.34 252.791 168.395 249.349 167.548 246.048C167.451 245.64 167.303 245.233 167.185 245.023C167.136 244.923 167.071 244.881 167.2 245.002C167.268 245.059 167.408 245.168 167.661 245.248C167.909 245.332 168.256 245.338 168.488 245.277C168.384 245.302 168.279 245.33 168.173 245.36C167.311 245.607 166.428 246.054 165.546 246.539C164.727 246.99 163.917 247.512 163.127 248.077C162.304 248.666 161.489 249.403 160.701 250.2C157.439 253.558 154.644 257.733 152.157 261.962C151.56 262.988 150.911 263.956 150.234 264.885C147.489 268.612 144.345 271.842 140.921 274.821C140.209 275.434 139.501 276.06 138.8 276.692C135.262 279.897 131.87 283.287 128.798 286.886C128.277 287.498 127.763 288.121 127.253 288.751C123.391 293.555 119.792 298.667 116.408 303.875C116.044 304.439 115.686 304.994 115.331 305.548C111.486 311.407 108.115 317.636 103.289 323.265C102.969 323.635 102.644 324.013 102.318 324.391C97.2035 330.146 91.8778 336.967 83.0512 339.166C82.6194 339.257 82.1888 339.322 81.7614 339.365C75.6414 339.809 70.2748 336.731 67.598 339.244C67.2128 339.559 66.8317 339.888 66.454 340.229C63.7523 342.664 61.2419 345.564 58.2684 348.246C57.4565 348.974 56.6037 349.687 55.6883 350.352C55.3406 350.604 54.9911 350.856 54.6418 351.108C46.5823 356.902 38.3582 362.392 30.0082 367.714C29.8556 367.811 29.7029 367.908 29.5504 368.006C25.7203 370.47 21.8559 373.222 17.5496 375.357C17.4927 375.385 17.4338 375.415 17.3733 375.446C14.828 376.779 12.2209 378.36 9.51186 379.755C8.15131 380.451 6.77036 381.138 5.20709 381.683C4.39265 381.93 3.63583 382.259 2.28401 382.146C2.09542 382.121 1.90148 382.08 1.70007 382.012C1.47482 381.935 1.2447 381.824 1.02316 381.664C0.549861 381.334 0.217995 380.779 0.103078 380.317C-0.110879 379.369 0.0542136 378.894 0.176676 378.357C0.362007 377.674 0.580931 377.016 0.814035 376.377C2.19799 372.673 3.94465 369.316 5.55238 365.929C5.79309 365.426 6.03657 364.924 6.28333 364.423C8.23801 360.438 10.3947 356.528 12.7394 352.752C12.9752 352.372 13.2163 351.988 13.4564 351.611C16.7862 346.398 20.3996 341.466 23.5846 336.334C23.7436 336.077 23.9004 335.824 24.0551 335.574C28.0425 329.089 31.9221 322.483 35.9904 316.11C36.0544 316.009 36.1186 315.908 36.183 315.807C38.9843 311.407 41.9736 307.156 45.0701 302.968ZM47.404 304.421L45.0701 302.968L45.0221 303.068L47.4519 304.322L47.404 304.421Z" fill="black"/>
</svg>
