<svg width="1675" height="1348" viewBox="0 0 1675 1348" fill="none" xmlns="http://www.w3.org/2000/svg">
<mask id="path-1-inside-1_63_124" fill="white">
<path d="M1324.41 123H1675V1348H-3V123H1190.59L1257.5 0L1324.41 123Z"/>
</mask>
<path d="M1324.41 123H1675V1348H-3V123H1190.59L1257.5 0L1324.41 123Z" fill="#01B37F"/>
<path d="M1324.41 123L1315.62 127.779L1318.47 133H1324.41V123ZM1675 123H1685V113H1675V123ZM1675 1348V1358H1685V1348H1675ZM-3 1348H-13V1358H-3V1348ZM-3 123V113H-13V123H-3ZM1190.59 123V133H1196.53L1199.38 127.779L1190.59 123ZM1257.5 0L1266.28 -4.77852L1257.5 -20.927L1248.72 -4.77852L1257.5 0ZM1324.41 123V133H1675V123V113H1324.41V123ZM1675 123H1665V1348H1675H1685V123H1675ZM1675 1348V1338H-3V1348V1358H1675V1348ZM-3 1348H7V123H-3H-13V1348H-3ZM-3 123V133H1190.59V123V113H-3V123ZM1190.59 123L1199.38 127.779L1266.28 4.77852L1257.5 0L1248.72 -4.77852L1181.81 118.221L1190.59 123ZM1257.5 0L1248.72 4.77852L1315.62 127.779L1324.41 123L1333.19 118.221L1266.28 -4.77852L1257.5 0Z" fill="black" mask="url(#path-1-inside-1_63_124)"/>
</svg>
