<svg width="212" height="253" viewBox="0 0 212 253" fill="none" xmlns="http://www.w3.org/2000/svg">
<path d="M110.334 2.5C93.1294 2.5 74.6962 33.9374 74.6962 33.9374L59.1303 149.48C59.1303 149.48 10.3845 98.8535 3.42082 120.9C-3.54286 142.947 31.2755 187.858 31.2755 187.858C31.2755 187.858 84.1176 251.141 110.334 250.324C136.55 249.508 187.754 187.858 187.754 187.858C187.754 187.858 220.524 129.883 204.139 120.9C187.754 111.918 153.754 149.48 153.754 149.48L141.466 33.9374C141.466 33.9374 127.538 2.5 110.334 2.5Z" fill="#01B37F" stroke="black" stroke-width="5"/>
<path d="M5.04785 120.084C5.04785 120.084 39.8663 149.48 47.6492 167.444C55.4321 185.408 62.3958 220.112 62.3958 220.112" stroke="black" stroke-width="5"/>
<path d="M206.584 122.942C206.584 122.942 171.766 152.338 163.983 170.302C156.2 188.266 151.694 225.42 151.694 225.42" stroke="black" stroke-width="5"/>
<path d="M127.932 163.819C136.965 163.819 144.274 171.117 144.274 180.101C144.274 189.084 136.965 196.381 127.932 196.381C118.898 196.381 111.589 189.084 111.589 180.101C111.589 171.117 118.898 163.819 127.932 163.819Z" fill="#01B37F" stroke="black" stroke-width="5"/>
<path d="M91.4785 36.4375C96.2138 36.4375 100.039 40.2613 100.039 44.9609C100.039 49.6606 96.2138 53.4844 91.4785 53.4844C86.7434 53.4842 82.9189 49.6604 82.9189 44.9609C82.919 40.2615 86.7434 36.4377 91.4785 36.4375Z" fill="#01B37F" stroke="black" stroke-width="5"/>
</svg>
