<svg width="437" height="412" viewBox="0 0 437 412" fill="none" xmlns="http://www.w3.org/2000/svg">
<path d="M141.549 68.9629L9.2832 225.838L159.69 330.182L343.412 289.445C343.412 289.445 430.679 230.162 430.499 225.5C430.319 220.838 328.899 68.9629 328.899 68.9629L220.051 127.925L141.549 68.9629Z" fill="black" stroke="black" stroke-width="10"/>
<path d="M189.411 224.787C143.79 229.935 78 243.209 78 255.673C78 268.137 151.083 340.306 177.015 352.768C202.947 365.229 266.802 364.555 285.531 359.948C304.259 355.341 328.736 333.033 333.538 321.653C338.34 310.273 365.651 261.092 357.487 251.067C349.323 241.042 235.031 219.64 189.411 224.787Z" fill="#FF8CBD" stroke="black" stroke-width="7"/>
<path d="M170.018 406.848C157.654 406.848 4.50122 229 5.00122 224.41C5.50122 219.819 227.973 310.53 227.973 310.53C227.973 310.53 429.836 222.265 431.155 224.052C432.474 225.839 317.133 406.848 302.883 406.848H170.018Z" fill="#FF4431" stroke="black" stroke-width="10"/>
<path d="M138.3 196.536L122.102 105.771H155.745L138.3 196.536Z" fill="white" stroke="black" stroke-width="10"/>
<path d="M317.072 196.536L300.873 105.771H334.517L317.072 196.536Z" fill="white" stroke="black" stroke-width="10"/>
<path d="M137.036 5C119.642 5 4.5 226.5 4.5 226.5L137.036 108.531C137.036 108.531 209.126 147.582 221.91 147.809C234.693 148.036 319.987 108.531 319.987 108.531L431 224C431 224 337.171 5 319.987 5C302.802 5 239.304 59.7168 221.91 60.3979C204.516 61.0791 154.43 5 137.036 5Z" fill="#FF4431" stroke="black" stroke-width="10"/>
</svg>
