<svg width="318" height="195" viewBox="0 0 318 195" fill="none" xmlns="http://www.w3.org/2000/svg">
<path d="M6.70596 99.3379C18.889 74.0277 53.5678 73.899 57.5837 73.9467C60.7781 73.9848 63.8758 74.2471 66.872 74.7097C78.5041 76.4934 88.5801 81.2149 96.7037 86.9094C105.789 93.2667 112.424 100.826 116.058 106.84C123.312 118.839 136.529 146.372 139.453 168.592C141.183 181.731 119.238 185.613 111.965 188.212C105.683 190.458 90.315 195.953 83.3126 189.366C78.6491 184.983 82.1044 179.38 81.5583 162.821C81.4617 159.831 81.133 149.877 78.5041 139.7C72.5552 145.385 61.9621 153.23 47.0535 154.742C41.7424 155.281 25.5435 156.917 13.7229 146.086C0.72319 134.167 -0.0886993 113.46 6.70596 99.3379ZM45.2992 125.883C50.7552 125.216 55.7473 120.714 59.6714 114.48C59.5699 114.447 59.4781 114.418 59.3911 114.39C46.8457 110.312 31.9902 115.477 31.8501 119.536C31.7534 122.426 39.0458 126.651 45.2992 125.883Z" fill="#F7DE1C" stroke="black" stroke-width="5" stroke-miterlimit="10"/>
<path d="M66.9119 74.7078C78.508 76.4885 88.5529 81.2022 96.6514 86.8871C95.0712 67.4088 71.1563 36.0893 64.3537 29.1474C41.9082 6.24575 25.1957 2.93192 15.093 2.5034C5.85754 2.10822 57.9847 36.1988 66.9119 74.7078Z" fill="#F7DE1C" stroke="black" stroke-width="5" stroke-miterlimit="10"/>
<path d="M45.1982 112.93C45.1982 112.93 66.7249 111.864 72.8241 121.451C78.9234 131.038 79.9997 145.955 79.9997 145.955" stroke="black" stroke-width="5"/>
<path d="M310.394 99.3379C298.211 74.0277 263.532 73.899 259.516 73.9467C256.322 73.9848 253.224 74.2471 250.228 74.7097C238.596 76.4934 228.52 81.2149 220.396 86.9094C211.311 93.2667 204.675 100.826 201.041 106.84C193.788 118.839 180.57 146.372 177.647 168.592C175.917 181.731 197.861 185.613 205.134 188.212C211.417 190.458 226.785 195.953 233.787 189.366C238.451 184.983 234.995 179.38 235.541 162.821C235.638 159.831 235.967 149.877 238.596 139.7C244.544 145.385 255.138 153.23 270.046 154.742C275.357 155.281 291.556 156.917 303.377 146.086C316.376 134.167 317.188 113.46 310.394 99.3379ZM271.8 125.883C266.344 125.216 261.352 120.714 257.428 114.48C257.53 114.447 257.621 114.418 257.708 114.39C270.254 110.312 285.109 115.477 285.25 119.536C285.346 122.426 278.054 126.651 271.8 125.883Z" fill="#F7DE1C" stroke="black" stroke-width="5" stroke-miterlimit="10"/>
<path d="M250.18 74.7078C238.584 76.4885 228.539 81.2022 220.44 86.8871C222.021 67.4088 245.936 36.0893 252.738 29.1474C275.184 6.24575 291.896 2.93192 301.999 2.5034C311.234 2.10822 259.107 36.1988 250.18 74.7078Z" fill="#F7DE1C" stroke="black" stroke-width="5" stroke-miterlimit="10"/>
<path d="M273.341 113.285C273.341 113.285 253.682 110.419 246.863 119.518C240.044 128.618 238.54 141.338 238.54 141.338" stroke="black" stroke-width="5"/>
</svg>
