<svg width="115" height="171" viewBox="0 0 115 171" fill="none" xmlns="http://www.w3.org/2000/svg">
<path d="M106.165 39.4696C112.5 53.4103 112.5 79.2512 112.5 94.3535C112.5 109.456 105.877 155.045 92.9188 161.434C79.9607 167.822 55.1963 167.822 55.1963 167.822C55.1963 167.822 34.1754 167.822 27.2644 161.434C20.3534 155.045 20.3534 148.947 20.3534 139.074C20.3534 129.2 28.4162 114.104 28.9921 104.809C29.5681 95.5151 26.1126 85.3495 20.3534 76.6396C14.5942 67.9298 2.5 57.7642 2.5 43.5351C2.5 29.3059 5.9555 17.1095 16.322 8.39779C26.6885 -0.313941 51.7408 1.4303 69.0183 8.39779C86.2958 15.3653 99.8298 25.5289 106.165 39.4696Z" fill="#F7DE1C" stroke="black" stroke-width="5"/>
<path d="M90.909 65.3144C90.909 65.3144 88.0294 38.8901 71.0399 26.6924C54.0504 14.4947 36.7729 18.2711 29.286 26.6924C21.7991 35.1138 22.9509 47.3102 29.286 57.1835C35.621 67.0568 50.019 76.9301 53.4745 90.288C56.93 103.646 47.7153 125.136 45.9875 133.847C44.2598 142.557 45.9875 149.528 53.4745 153.303C60.9614 157.078 77.9509 155.918 82.8462 149.528C87.7415 143.138 90.909 128.62 90.909 128.62" stroke="black" stroke-width="5"/>
<path d="M90.9082 65.0254C91.7721 71.1236 90.9082 69.0909 84.8611 72.2852C78.814 75.4795 68.4475 85.9335 73.9187 98.13C79.3899 110.326 85.149 112.069 88.8925 116.134C92.636 120.2 90.6203 129.783 90.6203 129.783" stroke="black" stroke-width="5"/>
</svg>
