<svg width="786" height="467" viewBox="0 0 786 467" fill="none" xmlns="http://www.w3.org/2000/svg">
<path d="M251.019 68.963L10.9355 225.838L283.948 330.182L617.43 289.445L776.088 225.838L591.086 68.963L393.512 127.925L251.019 68.963Z" fill="black" stroke="black" stroke-width="10"/>
<path d="M302.693 406.847C280.249 406.847 3.16113 224.409 3.16113 224.409L407.89 310.529C407.89 310.529 774.301 222.265 776.695 224.052C779.09 225.838 569.729 406.847 543.862 406.847H302.693Z" fill="#FF4431" stroke="black" stroke-width="10"/>
<path d="M245.121 196.536L215.718 105.771H276.786L245.121 196.536Z" fill="white" stroke="black" stroke-width="10"/>
<path d="M569.617 196.536L540.214 105.771H601.282L569.617 196.536Z" fill="white" stroke="black" stroke-width="10"/>
<path d="M242.824 5C211.252 5 3.76855 226.554 3.76855 226.554L242.824 108.531C242.824 108.531 373.68 147.582 396.884 147.809C420.087 148.036 574.908 108.531 574.908 108.531L776.704 225.125C776.704 225.125 606.1 5 574.908 5C543.715 5 428.456 59.7168 396.884 60.3979C365.311 61.0791 274.397 5 242.824 5Z" fill="#FF4431" stroke="black" stroke-width="10"/>
<path d="M361.824 223.106C309.576 229.265 234.229 245.147 234.229 260.059C234.229 274.971 427.271 429.263 456.969 444.172C486.668 459.081 554.315 465.567 575.764 460.055C597.213 454.543 617.562 413.38 623.061 399.764C628.561 386.149 563.664 266.542 554.315 254.548C544.965 242.554 414.071 216.948 361.824 223.106Z" fill="#FF8CBD" stroke="black" stroke-width="10"/>
<path d="M380.371 222.979C380.371 222.979 423.478 245.134 455.809 278.367C488.139 311.6 512.686 362.701 512.686 362.701" stroke="black" stroke-width="10"/>
</svg>
