<svg width="783" height="383" viewBox="0 0 783 383" fill="none" xmlns="http://www.w3.org/2000/svg">
<path d="M306.919 377.524C284.889 377.524 12.3193 177.306 12.3193 177.306L401.758 106.597L772.155 177.306C772.155 177.306 569.034 377.524 543.644 377.524H306.919Z" fill="#FF4431" stroke="black" stroke-width="10"/>
<path d="M247.567 5C216.576 5 16.4424 174.701 16.4424 174.701H247.567C247.567 174.701 376.011 238.712 398.787 239.084C421.563 239.456 573.53 174.701 573.53 174.701H769.93C769.93 174.701 604.148 5 573.53 5C542.913 5 429.778 94.6887 398.787 95.8051C367.796 96.9216 278.558 5 247.567 5Z" fill="#FF4431" stroke="black" stroke-width="10"/>
<path d="M218.429 233.127L189.305 175.816H249.793L218.429 233.127Z" fill="white" stroke="black" stroke-width="10"/>
<path d="M605.248 233.127L576.124 175.816H636.612L605.248 233.127Z" fill="white" stroke="black" stroke-width="10"/>
</svg>
