<svg width="452" height="261" viewBox="0 0 452 261" fill="none" xmlns="http://www.w3.org/2000/svg">
<g filter="url(#filter0_d_21_386)">
<rect width="432" height="241" fill="#01B37F"/>
<rect x="5" y="5" width="422" height="231" stroke="black" stroke-width="10"/>
</g>
<path d="M215.711 216.743C164.961 216.743 114.211 216.743 63.4607 216.743C59.5707 216.743 59.5707 216.743 59.9007 213.003C61.5507 194.583 44.8607 178.533 26.5807 181.153C23.6107 181.583 24.0407 179.953 24.0407 178.273C24.0307 146.823 24.0307 115.363 24.0307 83.9126C24.0307 76.9226 24.0707 69.9326 24.0007 62.9426C23.9807 61.0026 24.4107 60.4026 26.5807 60.6926C45.4507 63.2226 62.1807 46.5026 59.6907 27.6026C59.4107 25.4926 59.9907 24.9026 61.9607 25.0126C63.8507 25.1126 65.7507 25.0426 67.6507 25.0426C167.351 25.0426 267.051 25.0326 366.751 25.0326C371.941 25.0326 371.941 25.0326 371.751 29.9726C371.051 48.1926 387.091 62.9926 405.111 60.6726C407.191 60.4026 407.711 60.9426 407.711 62.9426C407.671 101.583 407.671 140.223 407.711 178.873C407.711 180.843 407.211 181.393 405.131 181.133C386.061 178.783 369.521 195.283 372.041 214.213C372.431 217.133 370.901 216.763 369.171 216.763C338.801 216.753 308.431 216.763 278.061 216.763C257.271 216.743 236.491 216.743 215.711 216.743ZM287.761 120.623C287.601 80.8826 255.221 48.8726 215.341 49.0226C175.861 49.1726 143.761 81.6726 143.911 121.323C144.061 160.783 176.571 192.923 216.201 192.803C255.721 192.683 287.921 160.203 287.761 120.623ZM323.761 120.933C323.801 134.153 334.691 144.943 347.911 144.843C360.991 144.753 371.651 134.003 371.701 120.873C371.751 107.843 360.901 96.9726 347.851 96.9726C334.551 96.9626 323.721 107.743 323.761 120.933ZM84.0907 96.9626C71.0307 96.8526 60.1507 107.553 60.0107 120.643C59.8707 133.863 70.6007 144.743 83.8707 144.853C96.9107 144.963 107.841 134.193 107.931 121.163C108.021 107.873 97.3807 97.0726 84.0907 96.9626Z" fill="#89FFDC"/>
<path d="M166.8 157V98.56H155.16V93.16H160.44C162.68 93 164.32 92.4 165.36 91.36C166.48 90.32 167.4 88.56 168.12 86.08H176.04V157H166.8ZM206.763 158.44C203.163 158.44 199.923 157.68 197.043 156.16C194.243 154.64 192.003 152.24 190.323 148.96C188.723 145.6 187.923 141.28 187.923 136V105.88C187.923 98.76 189.723 93.52 193.323 90.16C197.003 86.8 201.563 85.12 207.003 85.12C212.283 85.12 216.683 86.84 220.203 90.28C223.723 93.64 225.483 98.84 225.483 105.88V136C225.483 141.36 224.683 145.72 223.083 149.08C221.483 152.36 219.243 154.76 216.363 156.28C213.563 157.72 210.363 158.44 206.763 158.44ZM206.763 152.8C209.563 152.8 211.843 151.72 213.603 149.56C215.443 147.4 216.363 144.28 216.363 140.2V103.6C216.363 99.52 215.403 96.4 213.483 94.24C211.643 92.08 209.403 91 206.763 91C204.043 91 201.763 92.08 199.923 94.24C198.083 96.4 197.163 99.52 197.163 103.6V140.2C197.163 144.28 198.083 147.4 199.923 149.56C201.763 151.72 204.043 152.8 206.763 152.8ZM254.575 158.44C250.975 158.44 247.735 157.68 244.855 156.16C242.055 154.64 239.815 152.24 238.135 148.96C236.535 145.6 235.735 141.28 235.735 136V105.88C235.735 98.76 237.535 93.52 241.135 90.16C244.815 86.8 249.375 85.12 254.815 85.12C260.095 85.12 264.495 86.84 268.015 90.28C271.535 93.64 273.295 98.84 273.295 105.88V136C273.295 141.36 272.495 145.72 270.895 149.08C269.295 152.36 267.055 154.76 264.175 156.28C261.375 157.72 258.175 158.44 254.575 158.44ZM254.575 152.8C257.375 152.8 259.655 151.72 261.415 149.56C263.255 147.4 264.175 144.28 264.175 140.2V103.6C264.175 99.52 263.215 96.4 261.295 94.24C259.455 92.08 257.215 91 254.575 91C251.855 91 249.575 92.08 247.735 94.24C245.895 96.4 244.975 99.52 244.975 103.6V140.2C244.975 144.28 245.895 147.4 247.735 149.56C249.575 151.72 251.855 152.8 254.575 152.8Z" fill="black"/>
<defs>
<filter id="filter0_d_21_386" x="0" y="0" width="452" height="261" filterUnits="userSpaceOnUse" color-interpolation-filters="sRGB">
<feFlood flood-opacity="0" result="BackgroundImageFix"/>
<feColorMatrix in="SourceAlpha" type="matrix" values="0 0 0 0 0 0 0 0 0 0 0 0 0 0 0 0 0 0 127 0" result="hardAlpha"/>
<feOffset dx="20" dy="20"/>
<feComposite in2="hardAlpha" operator="out"/>
<feColorMatrix type="matrix" values="0 0 0 0 0 0 0 0 0 0 0 0 0 0 0 0 0 0 1 0"/>
<feBlend mode="normal" in2="BackgroundImageFix" result="effect1_dropShadow_21_386"/>
<feBlend mode="normal" in="SourceGraphic" in2="effect1_dropShadow_21_386" result="shape"/>
</filter>
</defs>
</svg>
