<svg width="786" height="412" viewBox="0 0 786 412" fill="none" xmlns="http://www.w3.org/2000/svg">
<path d="M251.019 68.9629L10.9355 225.838L283.948 330.182L617.43 289.445L776.088 225.838L591.086 68.9629L393.512 127.925L251.019 68.9629Z" fill="black" stroke="black" stroke-width="10"/>
<path d="M358.328 227.855C291.764 233.447 195.771 247.868 195.771 261.407C195.771 274.947 302.405 353.347 340.241 366.885C378.078 380.422 471.248 379.69 498.575 374.685C525.901 369.68 561.614 345.446 568.621 333.084C575.627 320.721 615.476 267.295 603.564 256.404C591.653 245.514 424.892 222.263 358.328 227.855Z" fill="#FF8CBD" stroke="black" stroke-width="7"/>
<path d="M302.694 406.848C280.25 406.848 3.16211 224.41 3.16211 224.41L407.891 310.53C407.891 310.53 774.302 222.265 776.696 224.052C779.091 225.839 569.73 406.848 543.863 406.848H302.694Z" fill="#FF4431" stroke="black" stroke-width="10"/>
<path d="M245.122 196.536L215.719 105.771H276.787L245.122 196.536Z" fill="white" stroke="black" stroke-width="10"/>
<path d="M569.618 196.536L540.215 105.771H601.283L569.618 196.536Z" fill="white" stroke="black" stroke-width="10"/>
<path d="M242.825 5C211.253 5 3.76953 226.554 3.76953 226.554L242.825 108.531C242.825 108.531 373.68 147.582 396.884 147.809C420.088 148.036 574.909 108.531 574.909 108.531L776.705 225.125C776.705 225.125 606.101 5 574.909 5C543.716 5 428.457 59.7168 396.884 60.3979C365.312 61.0791 274.398 5 242.825 5Z" fill="#FF4431" stroke="black" stroke-width="10"/>
</svg>
