<svg width="1680" height="1570" viewBox="0 0 1680 1570" fill="none" xmlns="http://www.w3.org/2000/svg">
<mask id="path-1-inside-1_62_122" fill="white">
<path d="M1324.92 144H1681V1570H0V144H1190.08L1257.5 0L1324.92 144Z"/>
</mask>
<path d="M1324.92 144H1681V1570H0V144H1190.08L1257.5 0L1324.92 144Z" fill="#FF8CBD"/>
<path d="M1324.92 144L1315.86 148.24L1318.56 154H1324.92V144ZM1681 144H1691V134H1681V144ZM1681 1570V1580H1691V1570H1681ZM0 1570H-10V1580H0V1570ZM0 144V134H-10V144H0ZM1190.08 144V154H1196.44L1199.14 148.24L1190.08 144ZM1257.5 0L1266.56 -4.24026L1257.5 -23.5835L1248.44 -4.24026L1257.5 0ZM1324.92 144V154H1681V144V134H1324.92V144ZM1681 144H1671V1570H1681H1691V144H1681ZM1681 1570V1560H0V1570V1580H1681V1570ZM0 1570H10V144H0H-10V1570H0ZM0 144V154H1190.08V144V134H0V144ZM1190.08 144L1199.14 148.24L1266.56 4.24026L1257.5 0L1248.44 -4.24026L1181.02 139.76L1190.08 144ZM1257.5 0L1248.44 4.24026L1315.86 148.24L1324.92 144L1333.98 139.76L1266.56 -4.24026L1257.5 0Z" fill="black" mask="url(#path-1-inside-1_62_122)"/>
</svg>
