<svg width="209" height="272" viewBox="0 0 209 272" fill="none" xmlns="http://www.w3.org/2000/svg">
<path d="M98.671 2.50475C81.81 2.95895 81.81 34.2988 81.81 34.2988L36.2397 146.486C36.2397 146.486 1.60627 162.383 2.51768 187.364C3.42908 212.345 49.4551 224.609 49.4551 224.609C49.4551 224.609 75.8859 270.937 108.697 268.666C141.507 266.395 161.102 224.609 161.102 224.609C161.102 224.609 202.571 216.887 205.761 187.364C208.951 157.841 161.102 146.486 161.102 146.486L117.811 34.2988C117.811 34.2988 115.532 2.05055 98.671 2.50475Z" fill="#FF8CBD" stroke="black" stroke-width="5"/>
<path d="M4.7959 192.359C4.7959 192.359 28.0368 185.092 39.885 192.359C51.7333 199.626 48.5434 224.61 48.5434 224.61" stroke="black" stroke-width="5"/>
<path d="M206.667 191.957C206.667 191.957 185.249 184.69 173.401 191.957C161.552 199.224 161.552 223.751 161.552 223.751" stroke="black" stroke-width="5"/>
</svg>
