<svg width="127" height="126" viewBox="0 0 127 126" fill="none" xmlns="http://www.w3.org/2000/svg">
<path d="M63.127 2.5C96.6316 2.50001 123.754 29.4108 123.754 62.5596C123.754 95.7084 96.6316 122.619 63.127 122.619C29.6223 122.619 2.5 95.7084 2.5 62.5596C2.50007 29.4108 29.6223 2.5 63.127 2.5Z" fill="white" stroke="black" stroke-width="5"/>
<mask id="path-2-inside-1_21_341" fill="white">
<path d="M79.4111 29.9834C97.5661 29.9834 112.284 44.5687 112.284 62.5605C112.284 80.5524 97.5661 95.1377 79.4111 95.1377C73.4839 95.1376 67.9239 93.5816 63.1221 90.8613C58.3204 93.5813 52.7609 95.1376 46.834 95.1377C28.679 95.1377 13.961 80.5524 13.9609 62.5605C13.9609 44.5687 28.679 29.9834 46.834 29.9834C52.7607 29.9835 58.3205 31.5389 63.1221 34.2588C67.9238 31.5387 73.4841 29.9835 79.4111 29.9834Z"/>
</mask>
<path d="M79.4111 29.9834C97.5661 29.9834 112.284 44.5687 112.284 62.5605C112.284 80.5524 97.5661 95.1377 79.4111 95.1377C73.4839 95.1376 67.9239 93.5816 63.1221 90.8613C58.3204 93.5813 52.7609 95.1376 46.834 95.1377C28.679 95.1377 13.961 80.5524 13.9609 62.5605C13.9609 44.5687 28.679 29.9834 46.834 29.9834C52.7607 29.9835 58.3205 31.5389 63.1221 34.2588C67.9238 31.5387 73.4841 29.9835 79.4111 29.9834Z" fill="#FF8CBD"/>
<path d="M79.4111 29.9834V24.9834H79.4111L79.4111 29.9834ZM112.284 62.5605H117.284V62.5605L112.284 62.5605ZM79.4111 95.1377L79.4111 100.138H79.4111V95.1377ZM63.1221 90.8613L65.5866 86.5109L63.1222 85.1148L60.6576 86.5109L63.1221 90.8613ZM46.834 95.1377V100.138H46.8341L46.834 95.1377ZM13.9609 62.5605H8.96094V62.5606L13.9609 62.5605ZM46.834 29.9834L46.8341 24.9834H46.834V29.9834ZM63.1221 34.2588L60.6577 38.6093L63.1221 40.0053L65.5865 38.6092L63.1221 34.2588ZM79.4111 29.9834V34.9834C94.8475 34.9834 107.284 47.3727 107.284 62.5606L112.284 62.5605L117.284 62.5605C117.284 41.7647 100.285 24.9834 79.4111 24.9834V29.9834ZM112.284 62.5605H107.284C107.284 77.7485 94.8475 90.1377 79.4111 90.1377V95.1377V100.138C100.285 100.138 117.284 83.3564 117.284 62.5605H112.284ZM79.4111 95.1377L79.4112 90.1377C74.3693 90.1376 69.6558 88.8162 65.5866 86.5109L63.1221 90.8613L60.6575 95.2117C66.1921 98.3471 72.5986 100.138 79.4111 100.138L79.4111 95.1377ZM63.1221 90.8613L60.6576 86.5109C56.5884 88.816 51.8753 90.1376 46.8339 90.1377L46.834 95.1377L46.8341 100.138C53.6465 100.138 60.0524 98.3467 65.5865 95.2118L63.1221 90.8613ZM46.834 95.1377V90.1377C31.3977 90.1377 18.961 77.7484 18.9609 62.5605L13.9609 62.5605L8.96094 62.5606C8.96098 83.3564 25.9603 100.138 46.834 100.138V95.1377ZM13.9609 62.5605H18.9609C18.9609 47.3726 31.3976 34.9834 46.834 34.9834V29.9834V24.9834C25.9603 24.9834 8.96094 41.7647 8.96094 62.5605H13.9609ZM46.834 29.9834L46.8339 34.9834C51.8756 34.9835 56.5889 36.3045 60.6577 38.6093L63.1221 34.2588L65.5864 29.9083C60.052 26.7733 53.6458 24.9835 46.8341 24.9834L46.834 29.9834ZM63.1221 34.2588L65.5865 38.6092C69.6552 36.3044 74.369 34.9835 79.4112 34.9834L79.4111 29.9834L79.4111 24.9834C72.5993 24.9835 66.1924 26.7729 60.6576 29.9083L63.1221 34.2588Z" fill="black" mask="url(#path-2-inside-1_21_341)"/>
<path d="M71.0107 42.668C84.1851 42.668 94.8652 51.7032 94.8652 62.8486C94.8652 73.994 84.1851 83.0293 71.0107 83.0293C68.3673 83.0293 65.8247 82.6638 63.4482 81.9922C61.0718 82.6638 58.5292 83.0293 55.8857 83.0293C42.7114 83.0293 32.0313 73.994 32.0312 62.8486C32.0312 51.7032 42.7113 42.668 55.8857 42.668C58.5291 42.668 61.0718 43.0326 63.4482 43.7041C65.8246 43.0326 68.3674 42.668 71.0107 42.668Z" fill="black"/>
<path d="M84.0723 48.0508C86.5614 48.0508 90.0482 48.595 92.8184 49.8564C95.6433 51.1429 96.9961 52.785 96.9961 54.7295C96.9959 56.5671 95.7827 57.9633 92.9834 59.0039C90.2213 60.0307 86.7066 60.3486 84.0723 60.3486C81.4385 60.3486 77.7649 60.0316 74.8428 58.9922C71.8263 57.9192 70.5783 56.4922 70.5781 54.7295C70.5781 52.8563 71.9736 51.1934 75.0039 49.873C77.9339 48.5964 81.5789 48.0509 84.0723 48.0508Z" fill="white" stroke="black" stroke-width="5"/>
</svg>
