<svg width="1680" height="1285" viewBox="0 0 1680 1285" fill="none" xmlns="http://www.w3.org/2000/svg">
<mask id="path-1-inside-1_63_125" fill="white">
<path d="M1325.16 119H1681V1285H0V119H1191.84L1258.5 0L1325.16 119Z"/>
</mask>
<path d="M1325.16 119H1681V1285H0V119H1191.84L1258.5 0L1325.16 119Z" fill="#7A59A4"/>
<path d="M1325.16 119L1316.44 123.887L1319.3 129H1325.16V119ZM1681 119H1691V109H1681V119ZM1681 1285V1295H1691V1285H1681ZM0 1285H-10V1295H0V1285ZM0 119V109H-10V119H0ZM1191.84 119V129H1197.7L1200.56 123.887L1191.84 119ZM1258.5 0L1267.22 -4.88716L1258.5 -20.4618L1249.78 -4.88716L1258.5 0ZM1325.16 119V129H1681V119V109H1325.16V119ZM1681 119H1671V1285H1681H1691V119H1681ZM1681 1285V1275H0V1285V1295H1681V1285ZM0 1285H10V119H0H-10V1285H0ZM0 119V129H1191.84V119V109H0V119ZM1191.84 119L1200.56 123.887L1267.22 4.88716L1258.5 0L1249.78 -4.88716L1183.12 114.113L1191.84 119ZM1258.5 0L1249.78 4.88716L1316.44 123.887L1325.16 119L1333.88 114.113L1267.22 -4.88716L1258.5 0Z" fill="black" mask="url(#path-1-inside-1_63_125)"/>
</svg>
