<svg width="318" height="144" viewBox="0 0 318 144" fill="none" xmlns="http://www.w3.org/2000/svg">
<path d="M72.6299 2.5C111.382 2.50025 142.759 33.6271 142.759 71.9766C142.759 110.326 111.382 141.453 72.6299 141.453C33.8772 141.453 2.5 110.326 2.5 71.9766C2.50013 33.6269 33.8772 2.5 72.6299 2.5Z" fill="white" stroke="black" stroke-width="5"/>
<path d="M72.6367 43.9619C82.8456 43.9619 97.2649 45.8849 109.045 50.3027C114.937 52.5123 120.007 55.2873 123.567 58.6221C127.089 61.9207 129.044 65.6695 129.044 69.9873C129.044 74.3028 127.091 78.0286 123.575 81.2939C120.019 84.5968 114.951 87.3317 109.06 89.501C97.2801 93.8381 82.857 95.6807 72.6367 95.6807C62.4207 95.6807 48.7723 93.8387 37.7705 89.5195C26.5739 85.1238 19.2422 78.6644 19.2422 69.9873C19.2422 61.2992 26.5891 54.7604 37.7852 50.2832C48.7875 45.8835 62.4325 43.9619 72.6367 43.9619Z" fill="#7A59A4" stroke="black" stroke-width="5"/>
<path d="M72.3057 56.5654C78.6221 56.5655 88.238 57.4095 96.1904 59.7793C100.177 60.9674 103.561 62.4853 105.899 64.3311C108.195 66.1431 109.3 68.105 109.3 70.3184C109.3 72.5507 108.175 74.6099 105.845 76.5566C103.486 78.5271 100.087 80.2018 96.1035 81.5488C88.149 84.2388 78.5529 85.3974 72.3057 85.3975C66.0627 85.3975 56.8996 84.2395 49.3818 81.5615C45.619 80.2211 42.4347 78.5578 40.2334 76.6045C38.0682 74.6832 36.9844 72.6144 36.9844 70.3184C36.9844 68.0391 38.0515 66.0699 40.1807 64.2852C42.36 62.4584 45.5251 60.9507 49.291 59.7686C56.8072 57.4092 65.9907 56.5654 72.3057 56.5654Z" fill="black" stroke="black" stroke-width="5"/>
<path d="M99.3633 58.5C102.634 58.5 107.204 59.1443 110.862 60.6572C114.658 62.2271 116.5 64.2669 116.5 66.6123C116.5 68.8446 114.812 70.6155 111.018 71.8965C107.362 73.1306 102.765 73.5 99.3633 73.5C95.962 73.5 91.1687 73.1308 87.3145 71.8857C83.2556 70.5746 81.5 68.7712 81.5 66.6123C81.5 64.338 83.416 62.2744 87.4658 60.6719C91.3228 59.1457 96.0889 58.5 99.3633 58.5Z" fill="white" stroke="black" stroke-width="5"/>
<path d="M244.888 2.5C283.64 2.50025 315.016 33.6271 315.017 71.9766C315.017 110.326 283.64 141.453 244.888 141.453C206.135 141.453 174.758 110.326 174.758 71.9766C174.758 33.6269 206.135 2.5 244.888 2.5Z" fill="white" stroke="black" stroke-width="5"/>
<path d="M244.895 43.9619C255.103 43.9619 269.523 45.8849 281.303 50.3027C287.194 52.5123 292.265 55.2873 295.825 58.6221C299.347 61.9207 301.302 65.6695 301.302 69.9873C301.302 74.3028 299.349 78.0286 295.833 81.2939C292.277 84.5968 287.209 87.3317 281.317 89.501C269.538 93.8381 255.115 95.6807 244.895 95.6807C234.678 95.6807 221.03 93.8387 210.028 89.5195C198.832 85.1238 191.5 78.6644 191.5 69.9873C191.5 61.2992 198.847 54.7604 210.043 50.2832C221.045 45.8835 234.69 43.9619 244.895 43.9619Z" fill="#7A59A4" stroke="black" stroke-width="5"/>
<path d="M244.563 56.5654C250.88 56.5655 260.496 57.4095 268.448 59.7793C272.435 60.9674 275.819 62.4853 278.157 64.3311C280.453 66.1431 281.558 68.105 281.558 70.3184C281.558 72.5507 280.432 74.6099 278.103 76.5566C275.744 78.5271 272.345 80.2018 268.361 81.5488C260.407 84.2388 250.811 85.3974 244.563 85.3975C238.321 85.3975 229.157 84.2395 221.64 81.5615C217.877 80.2211 214.693 78.5578 212.491 76.6045C210.326 74.6832 209.242 72.6144 209.242 70.3184C209.242 68.0391 210.309 66.0699 212.438 64.2852C214.618 62.4584 217.783 60.9507 221.549 59.7686C229.065 57.4092 238.248 56.5654 244.563 56.5654Z" fill="black" stroke="black" stroke-width="5"/>
<path d="M271.621 58.5C274.892 58.5 279.462 59.1443 283.12 60.6572C286.916 62.2271 288.758 64.2669 288.758 66.6123C288.758 68.8446 287.07 70.6155 283.275 71.8965C279.62 73.1306 275.023 73.5 271.621 73.5C268.22 73.5 263.427 73.1308 259.572 71.8857C255.513 70.5746 253.758 68.7712 253.758 66.6123C253.758 64.338 255.674 62.2744 259.724 60.6719C263.581 59.1457 268.347 58.5 271.621 58.5Z" fill="white" stroke="black" stroke-width="5"/>
</svg>
