<svg width="371" height="553" viewBox="0 0 371 553" fill="none" xmlns="http://www.w3.org/2000/svg">
<path d="M5.97215 397.65C10.7894 415.546 17.1193 432.488 34.6428 442.518C41.3684 446.381 45.2547 453.037 46.4881 460.693C47.6284 467.838 48.28 475.122 48.5593 482.382C49.5134 506.771 58.1239 527.087 81.2559 537.653C109.019 550.359 137.457 548.823 164.01 534.511C174.482 528.856 181.022 528.088 191.098 535.069C209.669 547.985 231.544 551.36 253.792 549.265C288.001 546.077 309.667 526.878 316.602 493.623C318.697 483.593 318.604 473.074 319.162 462.741C319.558 455.248 322.606 449.22 328.541 444.938C334.428 440.703 340.758 437.072 346.925 433.233C361.307 424.296 369.196 411.66 367.986 394.485C367.404 385.991 365.915 377.497 364.076 369.166C359.515 348.524 350.951 329.255 342.271 310.126C325.12 272.286 315.159 233.027 317.277 191.161L318.51 166.563C318.604 164.748 317.161 163.235 315.346 163.235L87.7488 163.235C87.7022 163.537 87.6556 163.863 87.6091 164.166C82.629 196.211 73.204 226.394 55.6572 253.948C42.9741 273.845 30.547 293.975 18.9578 314.524C4.31987 340.449 -1.98674 368.072 5.97215 397.65ZM287.955 354.528C290.235 340.449 299.288 330.465 311.343 329.907C322.42 329.395 331.147 334.514 337.011 343.66C343.202 353.295 346.716 364 346.599 377.311C346.25 386.992 343.83 397.767 338.361 407.727C333.614 416.337 326.679 418.665 318.51 414.01C302.127 404.702 283.789 380.173 287.955 354.528ZM281.462 504.956C278.786 513.404 274.76 521.13 268.313 527.32C258.074 537.141 246.578 536.931 236.617 526.831C228.752 518.872 224.795 508.772 221.631 498.347C220.095 493.25 218.978 487.991 218.21 482.731C217.162 475.494 216.581 468.163 215.557 458.413C215.533 458.133 215.533 457.831 215.58 457.552C216.883 450.128 217.814 440.237 220.583 430.929C227.286 408.448 249.766 403.724 265.847 420.992C275.016 430.836 279.135 443.077 281.346 455.969C284.115 472.259 286.605 488.642 281.462 504.956ZM99.3845 293.766C104.016 280.524 123.075 272.751 136.922 276.545C140.855 277.615 145.765 281.595 148.278 284.783C150.373 287.436 153.142 288.576 156.423 288.227C161.543 287.692 166.593 286.575 171.69 285.667C176.623 284.783 181.557 283.852 186.49 282.944C186.746 282.898 187.002 282.875 187.258 282.898C197.893 283.27 206.737 287.482 214.137 294.51C219.792 299.886 225.68 300.584 232.289 297.21C236.012 295.302 239.643 293.161 243.134 290.857C250.208 286.179 257.725 283.247 266.359 283.712C274.294 284.154 278.088 286.947 280.764 294.347C286.861 311.289 282.998 325.904 268.453 337.051C262.379 341.705 255.165 344.94 248.393 348.664C245.717 350.153 242.808 351.223 239.992 352.48C235.57 354.458 232.475 357.321 230.567 362.184C228.333 367.816 225.191 373.262 221.607 378.195C204.456 401.723 178.462 400.489 161.241 392.973C153.049 389.389 147.534 382.78 143.764 374.821C141.46 370.027 139.458 365.047 137.783 359.997C135.851 354.132 132.221 349.827 127.055 346.732C123.168 344.405 119.235 342.147 115.279 339.96C96.1498 329.441 93.9623 309.171 99.3845 293.766ZM107.902 424.552C109.764 421.736 111.951 419.084 114.348 416.71C126.752 404.422 142.879 405.935 152.956 420.34C160.426 431.022 162.288 443.309 160.356 455.643C158.262 469.141 155.05 482.592 150.908 495.624C146.347 509.866 136.642 520.478 123.122 527.25C109.717 533.976 96.7083 528.833 92.1238 514.451C89.7733 507.074 88.8658 499.208 88.0047 494.716C87.9582 494.46 87.9349 494.204 87.9582 493.948C89.4243 466.79 94.7069 444.473 107.902 424.552ZM34.5963 342.52C42.7646 335.329 52.1199 331.605 62.7085 336.283C73.9487 341.217 79.7898 350.804 80.3949 362.696C81.6516 387.806 70.3648 406.982 50.1883 421.062C39.4368 428.578 31.1521 426.228 25.2876 414.522C20.4006 404.702 18.6319 394.09 18.213 382.5C18.213 382.407 18.213 382.314 18.213 382.198C18.7017 367.42 22.4252 353.248 34.5963 342.52Z" fill="#7A59A4" stroke="black" stroke-width="5" stroke-miterlimit="10"/>
<path d="M186.886 282.875C197.684 283.154 206.643 287.39 214.16 294.511C219.815 299.887 225.703 300.585 232.312 297.21C236.035 295.302 239.689 293.161 243.18 290.857C250.254 286.18 257.771 283.247 266.405 283.736C274.34 284.178 278.134 286.948 280.81 294.371C286.907 311.313 283.044 325.928 268.499 337.075C262.402 341.729 255.211 344.964 248.416 348.687C245.74 350.153 242.831 351.247 240.038 352.504C235.616 354.482 232.521 357.344 230.59 362.185C228.356 367.84 225.214 373.285 221.63 378.196C204.479 401.747 178.484 400.513 161.287 392.973C153.095 389.389 147.556 382.78 143.786 374.821C141.506 370.004 139.504 365.047 137.829 359.974C135.897 354.11 132.267 349.828 127.101 346.709C123.214 344.382 119.281 342.125 115.325 339.937C96.1727 329.395 94.0084 309.125 99.4074 293.72C104.69 278.709 128.567 270.681 142.274 278.709C144.298 279.896 146.277 281.642 147.51 283.596C149.697 287.064 152.746 288.577 156.469 288.181C161.589 287.646 166.639 286.529 171.736 285.621C176.762 284.76 181.836 283.806 186.886 282.875Z" fill="#FF8CBD" stroke="black" stroke-width="5" stroke-miterlimit="10"/>
<path d="M87.935 494.368C89.3778 467.024 94.6372 444.59 107.902 424.553C109.764 421.737 111.975 419.084 114.372 416.71C126.775 404.423 142.903 405.959 152.979 420.364C160.449 431.046 162.288 443.333 160.38 455.644C158.285 469.141 155.074 482.616 150.908 495.625C146.37 509.867 136.643 520.502 123.145 527.251C109.741 533.953 96.7317 528.833 92.1471 514.451C89.6803 506.865 88.8193 498.766 87.935 494.368Z" fill="#FF8CBD" stroke="black" stroke-width="5" stroke-miterlimit="10"/>
<path d="M215.509 457.971C216.858 450.5 217.743 440.424 220.582 430.929C227.284 408.449 249.741 403.724 265.822 420.992C274.991 430.836 279.133 443.077 281.321 455.969C284.09 472.259 286.58 488.619 281.437 504.956C278.761 513.404 274.735 521.13 268.289 527.32C258.072 537.141 246.553 536.931 236.616 526.831C228.75 518.873 224.794 508.773 221.629 498.347C220.093 493.25 218.976 487.991 218.208 482.732C217.114 475.401 216.556 467.977 215.509 457.971Z" fill="#FF8CBD" stroke="black" stroke-width="5" stroke-miterlimit="10"/>
<path d="M18.2122 382.361C18.6777 367.514 22.3779 353.249 34.5955 342.52C42.7638 335.329 52.1191 331.606 62.7077 336.284C73.9479 341.24 79.789 350.805 80.3941 362.697C81.674 387.807 70.364 406.983 50.1875 421.062C39.436 428.579 31.1513 426.205 25.3101 414.5C20.3765 404.679 18.6078 393.997 18.2122 382.361Z" fill="#FF8CBD" stroke="black" stroke-width="5" stroke-miterlimit="10"/>
<path d="M346.599 377.311C346.25 386.992 343.829 397.79 338.361 407.727C333.613 416.338 326.678 418.665 318.51 414.011C302.127 404.679 283.789 380.174 287.931 354.528C290.212 340.449 299.264 330.465 311.319 329.907C322.42 329.395 331.123 334.515 336.988 343.637C343.201 353.295 346.715 364 346.599 377.311Z" fill="#FF8CBD" stroke="black" stroke-width="5" stroke-miterlimit="10"/>
<path d="M73.291 114.571C101.612 99.9307 143.188 99.4117 195.553 121.519L196.558 121.942L197.553 121.494C243.192 100.897 282.62 101.376 310.483 115.671C338.282 129.932 355.047 158.179 355.047 194.255C355.047 230.79 344.774 282.315 319.732 324.621C294.737 366.85 255.195 399.676 196.524 399.676C137.821 399.676 96.1149 366.812 68.9707 324.543C41.7869 282.213 29.4043 230.706 29.4043 194.255C29.4044 158.1 45.0589 129.166 73.291 114.571Z" fill="#FF4431" stroke="black" stroke-width="5"/>
<path d="M192.235 121.118C194.873 122.576 197.242 123.863 198.312 124.076C199.831 124.179 201.179 124.957 201.996 124.686C202.812 124.414 203.71 124.396 204.958 123.906C209.968 121.587 212.982 119.425 214.695 117.281C216.426 115.116 218.549 112.74 220.787 111.841C223.867 110.603 229.004 108.825 233.24 108.45C239.299 107.914 247.638 106.592 255.938 106.404C260.653 106.298 269.164 105.684 275.326 106.847C290.126 109.64 293.122 109.839 298.592 111.852C302.836 113.415 305.976 113.979 311.466 116.974C316.212 119.563 325.039 123.138 330.909 129.151C333.434 131.737 335.183 133.199 337.479 134.804C340.332 136.799 342.566 139.411 345.451 144.24C347.443 147.576 349.746 152.604 351.592 157.553C353.578 162.878 354.25 165.875 354.385 169.737C354.658 177.534 355.681 179.999 355.895 182.812C356.164 186.365 356.528 188.517 356.756 194.236C357.024 200.982 355.522 210.812 357.567 215.407C359.08 218.806 361.45 221.371 362.796 224.076C364.245 226.99 365.766 230.253 366.348 233.671C367.045 237.76 368.163 239.898 367.906 244.97C367.142 260.09 365.482 265.066 363.428 266.902C362.406 267.816 360.585 269.272 358.629 268.672C356.151 267.913 353.601 266.265 352.872 263.924C352.066 261.331 351.221 257.852 350.34 252.976C349.156 246.43 348.83 239.943 347.269 237.579C345.808 235.368 344.142 230.467 339.763 229.61C336.75 229.02 333.373 228.119 330.496 229.026C325.004 230.759 319.169 233.208 318.717 236.573C318.235 240.159 317.97 245.818 318.998 250.178C321.254 259.747 322.081 265.245 320.818 270.573C320.065 273.75 320.574 277.736 318.225 278.862C315.203 280.312 312.467 284.171 308.143 283.055C305.832 282.459 303.317 280.458 302.013 277.982C300.34 274.804 298.917 272.408 297.648 269.194C295.602 264.014 294.241 258.349 292.424 254.925C290.966 252.177 291.05 247.596 283.937 241.219C279.203 236.975 273.012 234.704 267.46 235.003C264.46 235.165 262.573 235.858 260.903 236.946C258.312 238.633 252.865 243.055 252.723 247.904C252.617 251.563 253.539 255.049 253.751 257.975C254.233 264.622 255.03 271.509 251.532 279.089C249.914 282.594 248.93 287.433 243.335 290.069C241.403 290.979 239.789 291.493 238.548 290.918C237.954 290.643 237.406 290.157 237.095 289.184C235.698 284.818 234.187 281.954 233.705 278.193C233.216 274.371 232.212 271.392 230.523 263.583C229.337 258.099 228.187 254.31 225.876 251.138C220.823 244.199 219.16 239.752 216.084 238.386C211.5 236.351 203.204 235.827 201.106 238.134C199.488 239.913 196.847 243.296 195.61 247.362C193.677 253.716 192.018 256.774 192.927 264.174C193.573 269.438 194.963 271.754 196.162 274.124C198.002 277.759 201.546 283.511 203.872 288.954C206.399 294.871 208.137 297.539 208.172 300.963C208.223 305.751 207.841 309.245 205.685 312.594C203.361 316.205 201.735 319.525 198.464 320.666C196.146 321.474 193.621 325.028 190.274 324.595C187.742 324.267 184.217 323.489 182.25 319.948C180.087 316.056 178.452 312.252 176.92 308.312C175.788 305.402 175.05 301.486 173.581 297C172.769 294.522 170.913 289.64 170.241 286.013C169.537 282.206 168.618 276.898 167.867 270.836C167.061 264.325 165.269 256.461 163.555 250.003C162.645 246.575 162.302 244.733 161.128 242.902C157.674 237.515 153.534 232.351 149.546 231.876C148.203 231.716 146.83 231.734 146.158 232.53C145.837 232.912 145.724 233.442 145.017 234.756C141.305 241.659 140.064 245.833 138.017 250.595C135.706 255.972 134.28 259.996 131.228 260.918C130.521 261.131 129.651 261.199 128.417 260.856C123.197 259.405 120.093 258.828 117.925 257.139C116.958 256.386 116.063 254.336 115.557 251.141C114.592 245.046 114.465 239.56 113.457 236.285C112.543 233.313 112.363 229.273 110.115 226.103C107.888 222.962 103.522 218.396 99.5951 218.246C96.7974 218.14 94.0618 218.482 92.5484 219.709L92.5122 219.738C91.4008 220.639 90.4305 221.425 89.9107 223.227C88.0796 229.576 86.4278 232.44 85.4968 239.765C84.957 244.012 84.5081 249.252 82.5327 255.164C81.6147 257.911 81.4858 261.176 79.567 262.485L79.4671 262.553C76.8705 264.326 73.1514 266.865 70.2317 265.973C67.0558 265.003 64.6053 263.898 63.5115 263.119C61.4637 261.661 59.0366 260.516 57.6947 258.159C56.1884 255.513 55.3299 252.337 54.4639 248.125C53.2792 242.363 52.7145 238.846 51.7163 235.797C50.4799 232.02 50.6148 228.591 50.5365 224.244C50.37 215.004 50.2118 212.805 49.5102 208.373C48.9736 204.984 49.101 197.115 44.2106 195.938C41.0897 195.186 38.5703 194.505 37.5971 195.141C36.3607 195.949 34.509 197.91 32.4801 201.019C30.6522 203.82 30.0667 206.104 28.1713 208.234C26.3401 210.291 24.0168 214.939 20.2971 215.124C18.1459 215.23 16.2568 214.86 14.9135 213.711C11.8976 211.132 8.45032 210.415 8.40501 207.731C8.3549 204.764 8.66461 198.246 11.7538 195.884C12.667 195.186 13.823 194.35 15.3127 193.622C17.8453 192.384 20.6553 190.741 22.799 188.88C24.8468 187.102 27.8276 185.525 29.2606 181.71C30.232 179.124 30.9003 176.953 31.3052 174.272C31.8417 170.72 31.7195 171.414 32.4801 159.079C32.7484 154.728 33.6331 150.549 36.2837 145.791C38.2977 142.175 40.7637 139.917 44.2106 137.192C47.8261 134.335 49.3334 131.855 51.9169 130.159C55.8252 127.595 57.2267 125.798 59.7335 123.906C61.9526 122.232 64.9958 121.831 68.5541 119.753C74.6327 116.202 76.7274 113.713 79.3665 112.596C81.5242 111.683 83.7178 109.895 86.9127 109.095C89.9285 108.34 92.9525 108.178 95.2055 106.831C97.3631 105.541 99.7192 104.599 102.373 104.303C103.825 104.142 113.76 102.875 127.688 104.255C134.216 104.901 137.049 106.335 139.931 106.677C144.02 107.164 147.284 107.634 151.458 108.563C155.334 109.427 159.073 110.998 162.552 111.309C165.567 111.579 167.884 112.609 171.822 113.682C175.588 114.708 180.15 115.687 183.831 116.914C186.908 117.941 189.576 119.649 192.235 121.118Z" fill="#01B37F" stroke="black" stroke-width="5" stroke-linecap="round"/>
<path d="M196.568 141.69C196.349 142.285 196.38 142.956 196.637 143.55C196.895 144.145 197.358 144.614 197.941 144.86C198.524 145.107 199.183 145.113 199.789 144.884C200.395 144.655 200.898 144.209 201.173 143.639C201.173 143.639 201.173 143.639 201.173 143.639C202.154 141.585 203.134 139.487 204.103 137.392C211.719 120.441 219.592 104.044 224.546 85.0042C224.548 84.9935 224.551 84.9828 224.553 84.972C228.84 61.5521 230.331 39.056 232.34 16.1384C232.525 13.8574 232.708 11.5076 232.88 9.24697C233.06 6.86405 232.275 4.55251 230.632 2.81904C228.993 1.08567 226.63 0.0723724 224.13 0.00386429C221.629 -0.0646439 219.215 0.81777 217.483 2.45879C215.748 4.09971 214.838 6.36482 214.887 8.75401C214.887 8.75401 214.887 8.75401 214.887 8.75401C214.933 10.9407 214.967 13.3001 215 15.5593C215.184 38.1535 215.718 61.4073 213.833 83.1077C213.832 83.1165 213.831 83.1253 213.83 83.1341C211.135 100.116 204.776 118.03 198.869 135.264C198.109 137.421 197.33 139.601 196.568 141.69Z" fill="black"/>
</svg>
