<svg width="429" height="261" viewBox="0 0 429 261" fill="none" xmlns="http://www.w3.org/2000/svg">
<path d="M300.6 39.0254C276.2 53.8254 255.1 82.8587 247.6 95.5254C238.5 90.0254 230 86.0254 217 86.0254C204 86.0254 190 92.0254 183.601 95.5254C173.267 82.6921 147.101 53.4254 125.101 39.0254C103.101 24.6254 51.2671 9.02539 28.1003 3.02539C18.9337 33.8587 1.00033 101.725 2.60033 126.525C4.20033 151.325 20.267 220.525 28.1003 252.025C56.1003 246.525 116.9 232.425 136.1 220.025C155.3 207.625 178.833 176.859 188.5 167.025C196.5 169.525 205 175.525 217 175.525C227 175.525 240 171.025 247.6 167.025C251.934 175.525 268.6 198.025 300.6 220.025C332.6 242.025 378.6 254.192 397.6 257.525C404.934 226.692 426.5 154.619 426.5 138.025C426.5 103.525 408.6 48.0254 397.6 9.52539C375.434 13.1921 325 24.2254 300.6 39.0254Z" fill="#FF4431" stroke="black" stroke-width="5"/>
<path d="M295.5 61.5254C283 67.0254 253.779 90.3411 247.5 100.942C239.881 96.3391 226.977 92.9914 216.092 92.9914C205.208 92.9914 188.358 98.013 183 100.942C174.348 90.2016 153.92 76.5773 135.5 64.5254C117.08 52.4735 74.8963 39.047 55.4996 34.0254C47.8246 59.8309 35.2436 106.131 36.5833 126.887C37.9229 147.643 48.941 196.662 55.4996 223.025C78.943 218.422 125.925 207.903 142 197.525L142.383 197.278C158.428 186.92 180.471 172.69 188.5 164.525C195.198 166.618 206.045 167.897 216.092 167.897C224.465 167.897 241.137 167.873 247.5 164.525C251.128 171.639 260.708 177.113 287.5 195.525C314.292 213.938 348.592 220.236 364.5 223.025C375 201.525 392.5 140.775 392.5 126.887C392.5 98.013 388 64.5254 375 37.0254C356.441 40.0942 317.368 51.9035 295.5 61.5254Z" fill="white" stroke="black" stroke-width="5"/>
<path d="M182.999 134.525C181.499 120.525 182.999 94.5254 182.999 94.5254C182.999 94.5254 200.999 85.5254 218.999 85.5254C236.999 85.5254 248.999 97.0254 248.999 97.0254C248.999 97.0254 250.498 117.525 250.499 131.025C250.499 144.525 247.499 167.525 247.499 167.525C247.499 167.525 229.998 176.025 218.999 177.025C207.999 178.025 188.999 167.525 188.999 167.525C188.999 167.525 184.499 148.525 182.999 134.525Z" fill="#FF4431" stroke="black" stroke-width="5"/>
<path d="M181.5 118.025L133.5 103.525L95.5 77.5254" stroke="black" stroke-width="5"/>
<path d="M251.5 118.025L299.5 103.525L337.5 77.5254" stroke="black" stroke-width="5"/>
<path d="M185.5 146.025L137.5 160.525L99.5 186.525" stroke="black" stroke-width="5"/>
<path d="M247.5 146.025L295.5 160.525L333.5 186.525" stroke="black" stroke-width="5"/>
<path d="M182 132.025H134.5" stroke="black" stroke-width="5"/>
<path d="M251 132.025H298.5" stroke="black" stroke-width="5"/>
</svg>
