<svg width="328" height="171" viewBox="0 0 328 171" fill="none" xmlns="http://www.w3.org/2000/svg">
<path d="M65.9414 42.4468C101 42.4468 129.383 70.6063 129.383 105.295C129.383 139.985 101 168.145 65.9414 168.145C30.8824 168.145 2.5 139.985 2.5 105.295C2.50018 70.6063 30.8825 42.4468 65.9414 42.4468Z" fill="white" stroke="black" stroke-width="5"/>
<path d="M65.9482 82.8013C78.5185 82.8013 88.6699 92.8939 88.6699 105.296C88.6699 117.699 78.5185 127.792 65.9482 127.792C53.3781 127.791 43.2266 117.699 43.2266 105.296C43.2266 92.894 53.3781 82.8014 65.9482 82.8013Z" fill="#FF4431" stroke="black" stroke-width="5"/>
<circle cx="66.4451" cy="105.025" r="10.3601" fill="black" stroke="black" stroke-width="5"/>
<circle cx="78.7688" cy="94.8433" r="7.68091" fill="white" stroke="black" stroke-width="5"/>
<path d="M262.059 42.4468C297.118 42.4468 325.5 70.6063 325.5 105.295C325.5 139.985 297.118 168.145 262.059 168.145C227 168.145 198.617 139.985 198.617 105.295C198.617 70.6063 227 42.4468 262.059 42.4468Z" fill="white" stroke="black" stroke-width="5"/>
<path d="M262.065 82.8013C274.636 82.8013 284.787 92.8939 284.787 105.296C284.787 117.699 274.636 127.792 262.065 127.792C249.495 127.791 239.344 117.699 239.344 105.296C239.344 92.894 249.495 82.8014 262.065 82.8013Z" fill="#FF4431" stroke="black" stroke-width="5"/>
<circle cx="262.562" cy="105.025" r="10.3601" fill="black" stroke="black" stroke-width="5"/>
<circle cx="274.885" cy="94.8433" r="7.68091" fill="white" stroke="black" stroke-width="5"/>
<path d="M167.746 2.5C202.805 2.5 231.187 30.6595 231.188 65.3486C231.188 100.038 202.805 128.198 167.746 128.198C132.687 128.198 104.305 100.038 104.305 65.3486C104.305 30.6595 132.687 2.50004 167.746 2.5Z" fill="white" stroke="black" stroke-width="5"/>
<path d="M167.754 42.8545C180.324 42.8545 190.476 52.9471 190.476 65.3496C190.476 77.7522 180.324 87.8447 167.754 87.8447C155.184 87.8446 145.032 77.7521 145.032 65.3496C145.032 52.9472 155.184 42.8546 167.754 42.8545Z" fill="#FF4431" stroke="black" stroke-width="5"/>
<circle cx="168.251" cy="65.0769" r="10.3601" fill="black" stroke="black" stroke-width="5"/>
<circle cx="180.573" cy="54.8962" r="7.68091" fill="white" stroke="black" stroke-width="5"/>
</svg>
