<svg width="267" height="526" viewBox="0 0 267 526" fill="none" xmlns="http://www.w3.org/2000/svg">
<path d="M150.074 15.6991C144.586 -0.190428 109.665 -3.53121 102.182 15.6991C94.6989 34.9295 102.182 412.847 102.182 412.847C102.182 412.847 17.3738 392.781 9.89071 412.847C2.40763 432.914 -2.08225 503.983 9.89071 513.18C21.8637 522.377 242.365 529.902 253.839 513.18C265.313 496.458 268.805 432.914 253.839 412.847C238.873 392.781 155.561 412.847 155.561 412.847C155.561 412.847 155.561 31.5887 150.074 15.6991Z" fill="#FF4431" stroke="black" stroke-width="5"/>
<path d="M2.90332 462.182C2.90332 462.182 52.7905 462.182 73.2442 472.215C93.6979 482.248 107.167 520.709 107.167 520.709" stroke="black" stroke-width="5"/>
<path d="M262.827 462.182C262.827 462.182 212.94 462.182 192.486 472.215C172.033 482.248 158.563 520.709 158.563 520.709" stroke="black" stroke-width="5"/>
</svg>
