<svg width="1110" height="590" viewBox="0 0 1110 590" fill="none" xmlns="http://www.w3.org/2000/svg">
<path d="M230.274 112.714C170.5 155.738 130 252.993 115.439 313.5H165.777C187.276 268.468 214.094 200.446 263 158.5C326.188 104.305 432.044 55.5154 571 57C709.956 58.4846 830.686 112.085 870 151C918 198.514 947.426 267.108 955.991 313.5H1010C995 248.538 972.08 158.302 908.5 109.338C854.942 68.0926 726 2.50001 564.292 2.5C412.066 2.49999 322.208 46.5407 230.274 112.714Z" fill="#FF4431"/>
<path d="M115.439 313.5C130 252.993 170.5 155.738 230.274 112.714C322.208 46.5407 412.066 2.49999 564.292 2.5C726 2.50001 854.942 68.0926 908.5 109.338C972.08 158.302 995 248.538 1010 313.5H955.991C947.426 267.108 918 198.514 870 151C830.686 112.085 709.956 58.4846 571 57C432.044 55.5154 326.188 104.305 263 158.5C214.094 200.446 187.276 268.468 165.777 313.5H106" stroke="black" stroke-width="5"/>
<path d="M132.5 306.5C162.938 306.5 189.724 310.267 208.979 327.294C228.181 344.273 240.5 375.007 240.5 430.499C240.5 485.979 228.185 518.019 208.916 536.263C189.634 554.518 162.832 559.5 132.5 559.5C102.279 559.5 69.8049 553.064 44.9277 533.128C20.1545 513.275 2.5 479.698 2.5 424.5C2.5 369.307 20.1373 340.124 44.7041 324.532C69.5298 308.776 101.982 306.5 132.5 306.5Z" fill="#FF4431" stroke="black" stroke-width="5"/>
<path d="M132.5 277.5C143.507 277.5 151.955 278.646 158.586 282.187C165.104 285.667 170.189 291.641 174.072 302.029C177.983 312.492 180.609 327.264 182.241 348.058C183.871 368.821 184.5 395.418 184.5 429.447C184.5 497.634 181.539 537.317 173.432 559.95C169.416 571.16 164.228 577.915 157.738 581.94C151.2 585.996 142.994 587.5 132.5 587.5C123.865 587.5 116.542 586.023 110.314 581.97C104.093 577.921 98.6687 571.107 94.2109 559.871C85.2363 537.25 80.5 497.556 80.5 429.447C80.5 395.428 81.3119 368.838 83.1689 348.084C85.0285 327.303 87.9245 312.53 92.0146 302.064C96.08 291.662 101.263 285.664 107.67 282.177C114.167 278.641 122.25 277.5 132.5 277.5Z" fill="#FF4431" stroke="black" stroke-width="5"/>
<path d="M977.5 306.5C947.062 306.5 920.276 310.267 901.021 327.294C881.819 344.273 869.5 375.007 869.5 430.499C869.5 485.979 881.815 518.019 901.084 536.263C920.366 554.518 947.168 559.5 977.5 559.5C1007.72 559.5 1040.2 553.064 1065.07 533.128C1089.85 513.275 1107.5 479.698 1107.5 424.5C1107.5 369.307 1089.86 340.124 1065.3 324.532C1040.47 308.776 1008.02 306.5 977.5 306.5Z" fill="#FF4431" stroke="black" stroke-width="5"/>
<path d="M977.5 277.5C966.493 277.5 958.045 278.646 951.414 282.187C944.896 285.667 939.811 291.641 935.928 302.029C932.017 312.492 929.391 327.264 927.759 348.058C926.129 368.821 925.5 395.418 925.5 429.447C925.5 497.634 928.461 537.317 936.568 559.95C940.584 571.16 945.772 577.915 952.262 581.94C958.8 585.996 967.006 587.5 977.5 587.5C986.135 587.5 993.458 586.023 999.686 581.97C1005.91 577.921 1011.33 571.107 1015.79 559.871C1024.76 537.25 1029.5 497.556 1029.5 429.447C1029.5 395.428 1028.69 368.838 1026.83 348.084C1024.97 327.303 1022.08 312.53 1017.99 302.064C1013.92 291.662 1008.74 285.664 1002.33 282.177C995.833 278.641 987.75 277.5 977.5 277.5Z" fill="#FF4431" stroke="black" stroke-width="5"/>
</svg>
