<svg width="233" height="233" viewBox="0 0 233 233" fill="none" xmlns="http://www.w3.org/2000/svg">
<circle cx="116.163" cy="116.163" r="116.163" fill="white"/>
<path d="M115.51 161.66C148.381 161.66 177.965 175.604 198.578 197.849C177.522 219.136 148.298 232.326 115.991 232.326C83.4301 232.326 53.9979 218.929 32.9062 197.347C53.4979 175.393 82.8865 161.66 115.51 161.66Z" fill="#FF4431"/>
<path d="M115.674 41.2207C147.726 41.2209 173.675 66.9912 173.675 98.7383C173.675 130.485 147.726 156.256 115.674 156.256C83.6215 156.256 57.6719 130.485 57.6719 98.7383C57.6719 66.9911 83.6215 41.2207 115.674 41.2207Z" fill="#FF4431" stroke="#FFFDFD" stroke-width="5"/>
<circle cx="116.163" cy="116.163" r="111.163" stroke="black" stroke-width="10"/>
</svg>
