<svg width="273" height="125" viewBox="0 0 273 125" fill="none" xmlns="http://www.w3.org/2000/svg">
<path d="M149.575 64.8501L149.575 124.426L143.454 124.426L143.454 64.8501L149.575 64.8501ZM117.093 64.8501L117.093 124.426L110.986 124.426L110.986 64.8501L117.093 64.8501ZM124.284 0.502443L129.071 31.8062L129.137 32.23L131.41 32.23L131.476 31.8062L136.263 0.502444L149.575 0.502445L149.575 56.0337L143.454 56.0337L143.454 6.59912L141.528 6.59912L141.464 7.02393L136.676 38.3267L123.885 38.3267L119.098 7.02393L119.033 6.59912L117.093 6.59912L117.093 56.0337L110.986 56.0337L110.986 0.502441L124.284 0.502443Z" fill="white" stroke="white"/>
<path d="M73.1143 64.8477L73.1143 118.327L87.0127 118.327L87.0127 64.8477L93.1182 64.8477L93.1182 124.424L66.9941 124.424L66.9942 64.8477L73.1143 64.8477Z" fill="white" stroke="white"/>
<path d="M59.8037 64.8477L59.8037 124.424L53.6836 124.424L53.6836 64.8477L59.8037 64.8477Z" fill="white" stroke="white"/>
<path d="M59.8037 0.500001L59.8037 33.1201L66.9854 33.1201L66.9854 0.500001L93.1094 0.500003L93.1094 56.0313L87.0039 56.0313L87.0039 6.59668L73.1065 6.59668L73.1065 56.0313L66.9854 56.0313L66.9854 38.2813L59.8037 38.2813L59.8037 56.0313L53.6836 56.0313L53.6836 0.5L59.8037 0.500001Z" fill="white" stroke="white"/>
<path d="M237.605 64.8477L237.604 124.424L231.483 124.424L231.483 70.9443L221.059 70.9443L221.012 71.3926L215.47 124.424L203.146 124.424L203.146 118.327L209.957 118.327L210.004 117.879L215.547 64.8477L237.605 64.8477Z" fill="white" stroke="white"/>
<path d="M237.598 0.500002L237.598 56.0313L231.478 56.0313L231.478 44.457L211.474 44.457L211.474 0.5L237.598 0.500002ZM217.594 39.2813L231.478 39.2813L231.478 6.59668L217.594 6.59668L217.594 39.2813Z" fill="white" stroke="white"/>
<path d="M173.656 0.500001L173.656 29.7637L174.562 28.5078L187.459 10.6143L187.554 10.4834L187.554 0.500002L193.674 0.500002L193.674 56.0313L187.554 56.0313L187.554 19.3545L186.648 20.6094L175.643 35.8691L173.75 38.4883L173.656 38.6201L173.656 56.0313L167.55 56.0313L167.55 0.5L173.656 0.500001Z" fill="white" stroke="white"/>
<path d="M173.656 64.8477L173.656 124.424L167.55 124.424L167.55 64.8477L173.656 64.8477Z" fill="white" stroke="white"/>
<path d="M193.673 64.8477L193.673 124.424L187.553 124.424L187.553 64.8477L193.673 64.8477Z" fill="white" stroke="white"/>
<path d="M16.1162 64.9761L12.7793 124.271L12.7783 124.286L12.7783 124.41L0.500006 124.41L0.500007 118.068L7.01758 118.068L7.04395 117.596L10.0088 64.9761L16.1162 64.9761Z" fill="white" stroke="white"/>
<path d="M35.8897 0.502444L35.8897 55.7886L29.8535 55.7886L29.8535 5.89502L19.8106 5.89502L19.7822 6.36475L16.8145 55.7886L10.7656 55.7886L14.0859 0.528809L14.3604 0.54541L14.3604 0.502442L35.8897 0.502444Z" fill="white" stroke="white"/>
<path d="M35.7705 64.9761L35.7705 124.41L29.6367 124.41L29.6367 64.9761L35.7705 64.9761Z" fill="white" stroke="white"/>
<path d="M260.181 52.9888L260.181 52.9897L260.685 55.686L260.685 55.6851C260.954 57.1761 262.138 58.3299 263.627 58.606L263.629 58.6069L266.213 59.0747L270.789 59.9048L266.213 60.7358L263.599 61.2046C262.1 61.4706 260.933 62.6409 260.653 64.1235L260.653 64.1245L260.149 66.8218L260.149 66.8228L259.312 71.3569L258.475 66.8228L258.475 66.8218L257.971 64.1245C257.7 62.6342 256.517 61.4806 255.028 61.2046L255.026 61.2046L252.443 60.7358L252.444 60.7358L247.918 59.9009L252.475 59.0747L255.058 58.6069L255.057 58.606C256.555 58.34 257.722 57.1697 258.002 55.687L258.002 55.686L258.506 52.9897L258.507 52.9888L259.343 48.4546L260.181 52.9888Z" fill="white" stroke="white"/>
</svg>
