<svg width="378" height="410" viewBox="0 0 378 410" fill="none" xmlns="http://www.w3.org/2000/svg">
<path d="M317.915 54.8568C290.125 25.0511 229.212 5.9938 199.228 2.59283C173.617 1.5517 121.476 9.08463 84.6204 30.7398C51.3571 50.2844 37.3533 71.135 25.7784 109.411C9.70185 162.573 10.3699 203.736 8.49587 237.26C6.62186 270.784 3.98909 343.034 13.285 355.739C25.7779 372.813 31.3148 376.598 45.474 376.598C67.4175 376.598 85.9547 369.273 90.7439 349.075C95.533 328.878 81.9985 389.054 128.849 389.054C175.699 389.054 173.031 361.361 174.658 361.361C175.738 361.361 170.701 396.758 209.014 401.548C239.665 405.379 254.268 383.987 257.739 372.813C261.556 381.419 277.02 397.675 308.337 393.843C339.653 390.012 345.678 370.592 344.776 361.361V276.406C343.71 269.6 341.051 256.322 338.945 257.66C348.601 251.361 356.262 244.456 359.976 237.26C373.302 211.44 371.428 191.451 369.554 163.757C367.68 136.064 354.06 93.6231 317.915 54.8568Z" fill="#F7DE1C"/>
<path d="M252.117 192.492C249.549 196.934 241.164 207.317 228.171 213.314C211.93 220.81 199.228 214.355 184.236 213.314C169.244 212.273 146.131 222.892 134.679 237.26C125.517 248.754 123.782 264.398 124.059 270.784C124.684 276.822 127.683 288.899 134.679 288.899C143.424 288.899 164.246 282.236 184.236 288.899C204.225 295.562 232.96 292.647 257.739 288.899C275.611 286.196 313.958 273.959 338.946 257.66M338.946 257.66C348.601 251.361 356.262 244.456 359.976 237.26C373.302 211.44 371.428 191.451 369.554 163.757C367.68 136.064 354.06 93.6231 317.915 54.8568C290.125 25.0512 229.212 5.99381 199.228 2.59284C173.617 1.55169 121.476 9.08463 84.6204 30.7398C51.3571 50.2843 37.3533 71.135 25.7784 109.411C9.70185 162.573 10.3699 203.736 8.49587 237.26C6.62186 270.784 3.98909 343.034 13.285 355.739C25.7779 372.813 31.3148 376.598 45.474 376.598C67.4175 376.598 85.9547 369.273 90.7439 349.075C95.533 328.878 81.9985 389.054 128.849 389.054C175.699 389.054 173.031 361.361 174.658 361.361C175.738 361.361 170.701 396.758 209.014 401.548C239.665 405.379 254.268 383.987 257.739 372.813C261.556 381.419 277.02 397.675 308.337 393.843C339.653 390.012 345.678 370.592 344.776 361.361V276.406C343.71 269.6 341.051 256.322 338.946 257.66Z" stroke="black" stroke-width="5"/>
<path d="M95.5752 287.27C96.2693 276.373 102.614 252.117 109.526 245.833C114.107 241.669 124.726 238.129 132.639 239.17" stroke="black" stroke-width="5"/>
<path d="M174.49 361.189C177.336 337.452 182.403 289.478 179.904 287.479" stroke="black" stroke-width="5"/>
<path d="M91.2003 348.695C92.6576 344.947 97.2385 294.974 95.1563 281.439C93.0741 267.905 83.4544 247.457 62.4655 248.124C36.2294 248.957 5.41245 261.45 6.66178 303.095" stroke="black" stroke-width="5"/>
<path d="M257.988 373.684L260.487 288.521" stroke="black" stroke-width="5"/>
</svg>
