<svg width="143" height="145" viewBox="0 0 143 145" fill="none" xmlns="http://www.w3.org/2000/svg">
<path d="M71.498 5.76465C109.626 5.76465 140.497 36.3904 140.497 74.1211C140.497 111.852 109.626 142.477 71.498 142.477C33.3703 142.476 2.50025 111.851 2.5 74.1211C2.5 36.3905 33.3701 5.76486 71.498 5.76465Z" fill="white" stroke="black" stroke-width="5"/>
<path d="M71.5 37.7646C90.7032 37.7646 106.232 53.1862 106.232 72.1621C106.232 91.138 90.7032 106.56 71.5 106.56C52.297 106.559 36.7686 91.1378 36.7686 72.1621C36.7686 53.1863 52.297 37.7649 71.5 37.7646Z" fill="#F7DE1C" stroke="black" stroke-width="5"/>
<path d="M71.166 52.1323C82.5442 52.1326 91.7293 61.2676 91.7295 72.4888C91.7295 83.7101 82.5443 92.846 71.166 92.8462C59.7875 92.8462 50.6016 83.7103 50.6016 72.4888C50.6017 61.2674 59.7876 52.1323 71.166 52.1323Z" fill="black" stroke="black" stroke-width="5"/>
<path d="M87.9707 61.2744C92.9802 61.2745 97.0029 65.2934 97.0029 70.2031C97.0028 75.1127 92.9801 79.1307 87.9707 79.1309C82.9613 79.1309 78.9387 75.1128 78.9385 70.2031C78.9385 65.2933 82.9611 61.2744 87.9707 61.2744Z" fill="white" stroke="black" stroke-width="5"/>
<mask id="path-5-inside-1_21_253" fill="white">
<path d="M0.0078125 70.5293C0.185452 31.547 32.1274 9.60578e-06 71.5049 6.19423e-06C110.882 0.000193518 142.823 31.5471 143.001 70.5293L0.0078125 70.5293Z"/>
</mask>
<path d="M0.0078125 70.5293C0.185452 31.547 32.1274 9.60578e-06 71.5049 6.19423e-06C110.882 0.000193518 142.823 31.5471 143.001 70.5293L0.0078125 70.5293Z" fill="#FF8CBD"/>
<path d="M0.0078125 70.5293L-4.99214 70.5065L-5.01503 75.5293L0.00781294 75.5293L0.0078125 70.5293ZM71.5049 6.19423e-06L71.5049 -4.99999L71.5049 -4.99999L71.5049 6.19423e-06ZM143.001 70.5293L143.001 75.5293L148.024 75.5293L148.001 70.5065L143.001 70.5293ZM0.0078125 70.5293L5.00777 70.5521C5.17267 34.3631 34.8389 5.00001 71.5049 5.00001L71.5049 6.19423e-06L71.5049 -4.99999C29.4159 -4.99999 -4.80176 28.7308 -4.99214 70.5065L0.0078125 70.5293ZM71.5049 6.19423e-06L71.5049 5.00001C108.171 5.00018 137.836 34.3632 138.001 70.5521L143.001 70.5293L148.001 70.5065C147.811 28.731 113.594 -4.99979 71.5049 -4.99999L71.5049 6.19423e-06ZM143.001 70.5293L143.001 65.5293L0.00781206 65.5293L0.0078125 70.5293L0.00781294 75.5293L143.001 75.5293L143.001 70.5293Z" fill="black" mask="url(#path-5-inside-1_21_253)"/>
</svg>
